<?xml version="1.0" encoding="UTF-8"?>
<svg version="1.1" xmlns="http://www.w3.org/2000/svg" width="512" height="512">
<path d="M0 0 C0.8717475 -0.00507454 1.74349499 -0.01014909 2.64165908 -0.0153774 C3.60515987 -0.01587516 4.56866067 -0.01637292 5.56135845 -0.01688576 C6.58042756 -0.02126801 7.59949667 -0.02565027 8.64944667 -0.03016531 C12.08645028 -0.04358948 15.52342823 -0.04974025 18.96045208 -0.0558567 C21.41565855 -0.06375473 23.87086386 -0.07202349 26.32606792 -0.08063698 C33.709818 -0.10462209 41.09356385 -0.11978884 48.47733954 -0.13269705 C50.56217439 -0.13640818 52.64700857 -0.14038147 54.73184276 -0.14444971 C67.67341751 -0.16968408 80.61499329 -0.19174107 93.55658722 -0.20417786 C96.55481565 -0.20710764 99.55304405 -0.21006929 102.55127239 -0.21308327 C103.29648353 -0.21382932 104.04169467 -0.21457537 104.80948796 -0.21534403 C116.88552637 -0.22800174 128.96141767 -0.26122991 141.03738729 -0.3028851 C153.43032175 -0.3452839 165.82318085 -0.36887045 178.21618766 -0.37409842 C185.17656811 -0.37751476 192.13671863 -0.38929593 199.09702778 -0.42220116 C205.64283789 -0.45309582 212.18831936 -0.45863009 218.73421574 -0.4468174 C221.13968048 -0.44659581 223.5451633 -0.45497047 225.95056438 -0.47247124 C229.22911427 -0.49503057 232.50619164 -0.48692837 235.78474712 -0.47098732 C237.21996006 -0.49181045 237.21996006 -0.49181045 238.68416721 -0.51305425 C243.27611045 -0.4578617 245.21728219 -0.37135743 248.93095207 2.5500145 C251.57689627 6.09194853 251.98817969 7.73208655 251.98378277 12.08504295 C251.98584476 13.6541996 251.98584476 13.6541996 251.98794842 15.25505638 C251.98435314 16.40735741 251.98075787 17.55965843 251.97705364 18.74687767 C251.97719967 19.95661247 251.9773457 21.16634727 251.97749615 22.41274071 C251.97691781 25.7348546 251.9718938 29.05690676 251.96492219 32.37900972 C251.95868163 35.84903247 251.95808429 39.31905599 251.95689678 42.78908348 C251.95378554 49.36222837 251.94557494 55.93535668 251.93554729 62.50849426 C251.92437973 69.99086273 251.91887408 77.47323198 251.91385186 84.9556067 C251.90339216 100.34941887 251.88579672 115.7432145 251.86352825 131.13701439 C252.89590115 131.13035255 253.92827404 131.12369072 254.99193096 131.11682701 C264.7458973 131.05587401 274.49982472 131.01097378 284.25393867 130.98157787 C289.2680073 130.96595683 294.28192152 130.94478384 299.2959013 130.91069603 C304.13939769 130.87797528 308.98274605 130.86013461 313.82634449 130.85238266 C315.66942009 130.84686192 317.51248806 130.83608145 319.35550022 130.81982422 C321.94746233 130.79788061 324.53882142 130.79505447 327.13086224 130.79643822 C327.88396679 130.78565239 328.63707134 130.77486656 329.41299725 130.76375389 C337.45195276 130.80985289 344.12620219 133.04775464 350.35571575 138.14873314 C355.17432065 144.50280022 355.2985748 151.45748977 355.25793743 159.09218407 C355.26402853 160.17410518 355.27011964 161.2560263 355.27639532 162.3707329 C355.29300299 165.98482891 355.28825255 169.59857175 355.28345013 173.21269798 C355.2907917 175.80846077 355.29937819 178.4042203 355.30911541 180.9999752 C355.33012976 187.31223075 355.33471258 193.62439437 355.33292753 199.93668078 C355.33161793 205.06942481 355.33543406 210.20214026 355.34285259 215.33487892 C355.34495187 216.81550332 355.34704947 218.29612771 355.34914541 219.77675211 C355.3507107 220.88230415 355.3507107 220.88230415 355.35230762 222.01019056 C355.37119371 235.93725038 355.37016474 249.86425749 355.36333829 263.79132481 C355.35776343 276.51996719 355.37858865 289.24840827 355.41169876 301.97700362 C355.44546703 315.06060607 355.46060023 328.14411217 355.45598173 341.227759 C355.45374028 348.56768592 355.45893259 355.90742677 355.48387432 363.24731636 C355.50713262 370.15031755 355.50426665 377.05289342 355.4839468 383.9559021 C355.48053607 386.48665187 355.4856284 389.01742982 355.49993038 391.54814148 C355.51813418 395.00854083 355.50536311 398.46752042 355.48498821 401.92787743 C355.49750606 402.92439335 355.51002391 403.92090928 355.52292109 404.94762266 C355.43587557 411.86444029 353.88838712 417.42613882 349.86352825 423.13701439 C344.07472254 427.92676946 338.8697714 429.28753197 331.4414854 429.25726891 C330.67938139 429.25812333 329.91727738 429.25897776 329.1320793 429.25985807 C326.57094029 429.26150902 324.00986634 429.25599776 321.44873333 429.25053978 C319.61580183 429.2502578 317.78287021 429.25041585 315.94993877 429.25098228 C310.96679442 429.25126983 305.98367402 429.24537992 301.00053525 429.23840833 C295.7954996 429.23216777 290.59046343 429.23157043 285.38542461 429.23038292 C275.52571392 429.22727168 265.66601427 429.21906108 255.80630845 429.20903343 C244.58275379 429.19786587 233.35919861 429.19236022 222.13563979 429.18733799 C199.0449284 429.1768783 175.95423216 429.15853538 152.86352825 429.13701439 C152.86352825 441.34701439 152.86352825 453.55701439 152.86352825 466.13701439 C155.95751995 466.11606712 159.05151165 466.09511986 162.23926067 466.07353783 C172.45713952 466.00728485 182.67502781 465.96308571 192.8930645 465.9297657 C199.0888196 465.9088833 205.2843548 465.88055312 211.47998333 465.83525658 C217.45814268 465.79182305 223.43609039 465.7678822 229.41439533 465.75750542 C231.69619676 465.75010964 233.97798649 465.73566759 236.25969791 465.71409416 C239.45366178 465.6850941 242.64674902 465.68105707 245.84082317 465.68291283 C246.78597286 465.66853172 247.73112255 465.65415062 248.70491314 465.63933372 C252.85484046 465.66545646 255.23578713 465.76506929 258.86494732 467.91539574 C265.6814792 475.49263924 262.86352825 480.0783576 262.86352825 492.13701439 C169.14352825 492.13701439 75.42352825 492.13701439 -21.13647175 492.13701439 C-21.13647175 474.13701439 -21.13647175 474.13701439 -17.13647175 468.13701439 C-14.02878556 466.0652236 -13.38228404 465.88793811 -9.86542988 465.89650536 C-8.99464802 465.89375603 -8.12386616 465.8910067 -7.22669697 465.88817406 C-6.27435673 465.89536461 -5.32201649 465.90255516 -4.34081745 465.90996361 C-2.83323368 465.90952553 -2.83323368 465.90952553 -1.29519367 465.9090786 C2.03254052 465.91047384 5.36005184 465.92604434 8.687747 465.94170189 C10.99274352 465.94543132 13.29774162 465.94827862 15.60274029 465.95027733 C21.67400763 465.95791925 27.74517952 465.97757259 33.81640911 465.99968529 C40.00983673 466.02013166 46.20327975 466.02927646 52.39673138 466.03935814 C64.55237906 466.06081791 76.70793079 466.09600467 88.86352825 466.13701439 C88.86352825 453.92701439 88.86352825 441.71701439 88.86352825 429.13701439 C83.28140423 429.16319847 77.6992802 429.18938255 71.94800091 429.21636009 C53.50787695 429.29919653 35.06774569 429.35468816 16.62748432 429.39607525 C5.44679169 429.421837 -5.73372444 429.45694889 -16.91430378 429.51421165 C-26.66135612 429.56410855 -36.40828062 429.59632015 -46.15545714 429.60745686 C-51.31470897 429.61396493 -56.47359511 429.62921867 -61.63272953 429.66566467 C-66.49353073 429.69972338 -71.35381725 429.71004741 -76.21472645 429.7025528 C-77.99404292 429.70392293 -79.77337745 429.71379642 -81.55259037 429.73304176 C-99.90319089 429.9217195 -99.90319089 429.9217195 -107.13647175 424.13701439 C-111.0025281 419.38964147 -113.25824875 414.84182581 -113.26789951 408.65161419 C-113.27174066 407.72747481 -113.2755818 406.80333542 -113.27953935 405.85119182 C-113.27867286 404.834286 -113.27780638 403.81738019 -113.27691364 402.76965904 C-113.27988477 401.69059892 -113.28285589 400.6115388 -113.28591704 399.49977988 C-113.2946239 395.86558533 -113.29611398 392.23142364 -113.29760456 388.59721947 C-113.30223136 385.99895215 -113.30725583 383.40068551 -113.31264973 380.80241966 C-113.32623634 373.72997339 -113.33225849 366.65753277 -113.33666039 359.58507562 C-113.33942269 355.1686022 -113.34366006 350.75213097 -113.34816456 346.33565903 C-113.36035848 334.10710379 -113.37065701 321.87855031 -113.37403965 309.64998913 C-113.37425922 308.86719001 -113.37447878 308.08439088 -113.374705 307.27787058 C-113.37492328 306.49319733 -113.37514156 305.70852409 -113.37536645 304.90007287 C-113.37580992 303.31002668 -113.37625648 301.7199805 -113.37670612 300.12993431 C-113.37692755 299.34121638 -113.37714898 298.55249846 -113.37737712 297.73987999 C-113.38132378 284.96435932 -113.39877321 272.18889574 -113.42206565 259.41339711 C-113.44578813 246.29607728 -113.45824194 233.17878609 -113.45940757 220.06144446 C-113.46032391 212.69695757 -113.46606584 205.33254502 -113.48422718 197.96807861 C-113.50125257 191.03980234 -113.50287404 184.11166929 -113.49408817 177.18337822 C-113.49331659 174.64050418 -113.49767638 172.09762261 -113.50754642 169.55476761 C-113.52023237 166.08277239 -113.51440679 162.61127959 -113.50396442 159.13928795 C-113.51202083 158.13353574 -113.52007723 157.12778353 -113.52837777 156.09155399 C-113.48048321 149.28020361 -112.72243527 143.42824068 -108.374753 137.89482689 C-107.73924519 137.35599876 -107.10373737 136.81717064 -106.44897175 136.26201439 C-105.82635456 135.70771751 -105.20373737 135.15342064 -104.562253 134.58232689 C-98.68522788 131.08071772 -92.17323614 130.84671577 -85.51733112 130.90996361 C-84.69686298 130.90967155 -83.87639484 130.9093795 -83.03106403 130.9090786 C-80.34733839 130.91046031 -77.66389826 130.92596633 -74.98022175 130.94170189 C-73.10835643 130.94543615 -71.23648914 130.94828117 -69.36462116 130.95027733 C-64.45900715 130.95788128 -59.55351322 130.97750172 -54.64794636 130.99968529 C-49.63372134 131.02021373 -44.61947676 131.02929397 -39.60522175 131.03935814 C-29.78225258 131.06075087 -19.95937218 131.0948474 -10.13647175 131.13701439 C-10.14015892 130.50348234 -10.14384609 129.86995029 -10.147645 129.21722031 C-10.23602979 113.79321774 -10.30219764 98.36930341 -10.34372044 82.94511032 C-10.36433493 75.48603654 -10.39243402 68.02713193 -10.43822956 60.56816673 C-10.47813169 54.06598726 -10.50391266 47.56393031 -10.51282573 41.0616318 C-10.51803486 37.61949659 -10.5302543 34.17771189 -10.55939198 30.73568916 C-10.5916759 26.89071964 -10.59242898 23.04609125 -10.59057331 19.20097923 C-10.60495441 18.06305931 -10.61933552 16.92513939 -10.63415241 15.75273705 C-10.6019566 9.59537649 -10.3523193 5.77891401 -6.13647175 1.13701439 C-3.84072132 -0.01086082 -2.55285791 0.00787041 0 0 Z " fill="#478BF6" transform="translate(135.13647174835205,9.862985610961914)"/>
<path d="M0 0 C0.8717475 -0.00507454 1.74349499 -0.01014909 2.64165908 -0.0153774 C4.08691027 -0.01612404 4.08691027 -0.01612404 5.56135845 -0.01688576 C6.58042756 -0.02126801 7.59949667 -0.02565027 8.64944667 -0.03016531 C12.08645028 -0.04358948 15.52342823 -0.04974025 18.96045208 -0.0558567 C21.41565855 -0.06375473 23.87086386 -0.07202349 26.32606792 -0.08063698 C33.709818 -0.10462209 41.09356385 -0.11978884 48.47733954 -0.13269705 C50.56217439 -0.13640818 52.64700857 -0.14038147 54.73184276 -0.14444971 C67.67341751 -0.16968408 80.61499329 -0.19174107 93.55658722 -0.20417786 C96.55481565 -0.20710764 99.55304405 -0.21006929 102.55127239 -0.21308327 C103.29648353 -0.21382932 104.04169467 -0.21457537 104.80948796 -0.21534403 C116.88552637 -0.22800174 128.96141767 -0.26122991 141.03738729 -0.3028851 C153.43032175 -0.3452839 165.82318085 -0.36887045 178.21618766 -0.37409842 C185.17656811 -0.37751476 192.13671863 -0.38929593 199.09702778 -0.42220116 C205.64283789 -0.45309582 212.18831936 -0.45863009 218.73421574 -0.4468174 C221.13968048 -0.44659581 223.5451633 -0.45497047 225.95056438 -0.47247124 C229.22911427 -0.49503057 232.50619164 -0.48692837 235.78474712 -0.47098732 C237.21996006 -0.49181045 237.21996006 -0.49181045 238.68416721 -0.51305425 C243.27611045 -0.4578617 245.21728219 -0.37135743 248.93095207 2.5500145 C252.03419166 6.70409679 252.00356723 9.63312312 251.98378277 14.66658592 C251.98463879 15.45043663 251.9854948 16.23428734 251.98637676 17.0418911 C251.98803907 19.69097185 251.98249681 22.33999014 251.97705364 24.98906517 C251.97674748 26.91167194 251.9768805 28.83427881 251.9774189 30.75688553 C251.97764527 35.91987478 251.97183652 41.08284101 251.96480846 46.24582481 C251.95912648 51.0851251 251.95884605 55.92441969 251.95813274 60.76372337 C251.95287899 74.92982345 251.93891793 89.09591921 251.92602825 103.26201439 C251.90540325 134.90076439 251.88477825 166.53951439 251.86352825 199.13701439 C165.73352825 199.13701439 79.60352825 199.13701439 -9.13647175 199.13701439 C-10.31268634 120.33063694 -10.31268634 120.33063694 -10.374753 98.46123314 C-10.37882853 97.1510956 -10.38290405 95.84095806 -10.38710308 94.49111938 C-10.40356746 89.01113737 -10.41810345 83.53115797 -10.42585182 78.05115604 C-10.43664813 70.42750779 -10.46215832 62.80418615 -10.50521594 55.18064946 C-10.53891712 48.99380148 -10.55084224 42.80708228 -10.55491924 36.62014771 C-10.55976424 34.03774745 -10.57131795 31.45535007 -10.58995724 28.87301254 C-10.61415876 25.32492677 -10.61342869 21.77768566 -10.60644245 18.22954369 C-10.61925251 17.18753304 -10.63206257 16.14552238 -10.64526081 15.07193565 C-10.60239839 9.12639841 -10.13059423 5.652581 -6.13647175 1.13701439 C-3.84072132 -0.01086082 -2.55285791 0.00787041 0 0 Z " fill="#A54AF3" transform="translate(135.13647174835205,9.862985610961914)"/>
<path d="M0 0 C0.81886185 -0.00189835 1.63772369 -0.00379669 2.48139954 -0.00575256 C5.16030768 -0.00942699 7.83893867 0.00119079 10.51782227 0.01245117 C12.38729317 0.01364433 14.25676469 0.01409585 16.12623596 0.01383972 C20.02885736 0.01539848 23.93138623 0.02364591 27.83398438 0.03710938 C32.8468061 0.054181 37.85952713 0.05792105 42.87237453 0.05716419 C46.72494983 0.05743532 50.57750294 0.06290592 54.43007088 0.07016563 C56.27973322 0.07335512 58.12939809 0.07532036 59.97906303 0.07605934 C62.5524925 0.07821528 65.12581259 0.08694075 67.69921875 0.09765625 C68.85316635 0.09697647 68.85316635 0.09697647 70.03042603 0.09628296 C75.2822461 0.1284375 75.2822461 0.1284375 76.39672852 1.24291992 C76.48304726 2.58559405 76.50379325 3.93266314 76.49438477 5.27807617 C76.48955078 6.49140625 76.48955078 6.49140625 76.48461914 7.72924805 C76.47205078 9.00445312 76.47205078 9.00445312 76.45922852 10.30541992 C76.4547168 11.15942383 76.45020508 12.01342773 76.44555664 12.89331055 C76.43373225 15.00987656 76.4157962 17.12640677 76.39672852 19.24291992 C74.93213699 19.24505745 74.93213699 19.24505745 73.43795776 19.24723816 C64.22729318 19.26392222 55.0170696 19.30673873 45.80663872 19.37501049 C41.07163051 19.4092721 36.33694467 19.43438917 31.60180664 19.43847656 C27.03034324 19.44276131 22.45960693 19.47123834 17.88837051 19.5163517 C16.14615238 19.52932113 14.4038472 19.53363633 12.66158676 19.52907372 C10.2168749 19.52416351 7.77428469 19.55027517 5.32983398 19.58349609 C4.6126973 19.57487045 3.89556061 19.56624481 3.1566925 19.55735779 C-1.23909203 19.65721489 -4.04593088 20.6603898 -7.34801149 23.58453435 C-9.82191657 26.85293175 -9.4220116 30.56252739 -9.35844421 34.51100159 C-9.37142578 35.91587661 -9.37142578 35.91587661 -9.3846696 37.34913296 C-9.40627214 40.48953601 -9.38495835 43.62817028 -9.36376953 46.76855469 C-9.37026204 49.01893969 -9.37932255 51.26931854 -9.39076233 53.51968384 C-9.41386738 59.63331212 -9.3991102 65.74631711 -9.37629294 71.85992551 C-9.35740096 78.2522429 -9.36853137 84.64451781 -9.37519836 91.03684998 C-9.38194812 102.45913876 -9.35917197 113.88108747 -9.32425896 125.30330377 C-9.29335867 135.6611232 -9.29099872 146.01862063 -9.31005859 156.37646484 C-9.334524 169.68720206 -9.33359585 182.99766294 -9.31128883 196.308424 C-9.30329178 201.39332006 -9.30530759 206.47806807 -9.31531334 211.56295967 C-9.32584399 217.54752893 -9.31179594 223.53154417 -9.27857018 229.51602554 C-9.27034407 231.71547501 -9.27066897 233.91497508 -9.28004837 236.11441994 C-9.29142547 239.11084618 -9.2721748 242.10553465 -9.24491882 245.1018219 C-9.26062606 246.41576969 -9.26062606 246.41576969 -9.27665061 247.75626189 C-9.26299517 248.55884017 -9.24933974 249.36141846 -9.2352705 250.1883173 C-9.23323975 251.2254449 -9.23323975 251.2254449 -9.23116797 252.28352457 C-8.20934401 255.47219845 -6.41112698 256.52612497 -3.60327148 258.24291992 C-0.21786141 258.84024 -0.21786141 258.84024 3.55729675 258.74628448 C4.62737903 258.75500513 4.62737903 258.75500513 5.71907914 258.76390195 C8.11612139 258.77853188 10.51214444 258.76460355 12.90917969 258.75085449 C14.64235299 258.75546224 16.37552239 258.76181431 18.10868359 258.76976347 C22.87650075 258.78649726 27.6439986 258.77819206 32.41181707 258.7658186 C37.55163608 258.75678698 42.69139928 258.77072844 47.83120728 258.78173828 C57.90213081 258.79954829 67.97293528 258.79567247 78.04386353 258.78408772 C86.22687398 258.77506343 94.409851 258.77382504 102.59286499 258.77818298 C104.33816098 258.77910238 104.33816098 258.77910238 106.11871547 258.78004035 C108.48221915 258.78131922 110.84572282 258.78261607 113.20922649 258.78393072 C135.38495041 258.79534379 157.56060825 258.7822114 179.73632133 258.76072925 C198.77452402 258.74285763 217.81262915 258.74596153 236.85083008 258.7644043 C258.94583525 258.78579816 281.04078247 258.79424508 303.13579655 258.78195524 C305.49072837 258.78068101 307.8456602 258.77942353 310.20059204 258.77818298 C311.35933985 258.77756588 312.51808767 258.77694878 313.71194905 258.77631298 C321.88751914 258.77285563 330.06305254 258.77869672 338.23861694 258.7881012 C348.19849148 258.79930607 358.15823989 258.79631297 368.11809993 258.77497822 C373.20224372 258.76444746 378.28617701 258.76038044 383.37031937 258.77357483 C388.02125884 258.78546264 392.67179199 258.77899603 397.32269442 258.75766462 C399.00835219 258.75318319 400.69404404 258.7554992 402.37968004 258.76516777 C404.6656661 258.77727767 406.95024831 258.76491354 409.23616028 258.74628448 C411.1430373 258.74531037 411.1430373 258.74531037 413.08843708 258.74431658 C416.99866605 258.15169172 418.64953448 257.04346787 421.39672852 254.24291992 C422.71260604 250.29528736 422.54131959 246.52726944 422.53717041 242.41189575 C422.54014153 241.49814458 422.54311265 240.5843934 422.54617381 239.6429528 C422.55487433 236.56835584 422.5563702 233.49379776 422.55786133 230.41918945 C422.56248849 228.2199902 422.56751302 226.02079175 422.57290649 223.82159424 C422.58604111 217.83815622 422.59247737 211.85472943 422.59691715 205.87127924 C422.59984579 202.13558837 422.60395017 198.39990059 422.60842133 194.66421127 C422.62209822 182.98329421 422.63178024 171.3023836 422.63562322 159.62145913 C422.63606668 158.27701767 422.63651325 156.93257622 422.63696289 155.58813477 C422.63718432 154.92124511 422.63740575 154.25435546 422.63763389 153.56725703 C422.64158279 142.75876221 422.65904 131.95033477 422.68232241 121.14186598 C422.70603078 110.04615455 422.71823997 98.95047116 422.71966434 87.85473335 C422.72071407 81.62436977 422.72665777 75.39410124 422.74448395 69.16376114 C422.76092085 63.30495721 422.76314144 57.44632024 422.75434494 51.58750153 C422.75357225 49.43521809 422.75794766 47.28292584 422.76780319 45.13066483 C422.78045424 42.19621296 422.77468312 39.26235855 422.76422119 36.32791138 C422.7722776 35.47294953 422.780334 34.61798767 422.78863454 33.73711789 C422.7496305 29.07081152 422.39404646 26.05194441 419.39672852 22.24291992 C415.92670925 19.62243235 411.9588717 19.93669059 407.7824707 19.92407227 C407.02110809 19.91402664 406.25974548 19.90398102 405.47531128 19.89363098 C402.96474953 19.8627993 400.45429443 19.84576402 397.94360352 19.82885742 C396.20053185 19.81014575 394.45746923 19.79057233 392.7144165 19.77017212 C388.13107645 19.71884481 383.54770703 19.67922229 378.9642334 19.64202881 C374.28540783 19.60199293 369.60670449 19.55089868 364.92797852 19.50073242 C355.75097251 19.40396595 346.57391607 19.32058568 337.39672852 19.24291992 C337.39672852 12.97291992 337.39672852 6.70291992 337.39672852 0.24291992 C348.19352445 0.1750024 358.99017727 0.12002213 369.78713894 0.08748341 C374.80120756 0.07186236 379.81512178 0.05068938 384.82910156 0.01660156 C389.67259796 -0.01611919 394.51594631 -0.03395985 399.35954475 -0.04171181 C401.20262035 -0.04723255 403.04568832 -0.05801302 404.88870049 -0.07427025 C407.48066259 -0.09621386 410.07202168 -0.09904 412.6640625 -0.09765625 C413.79371933 -0.11383499 413.79371933 -0.11383499 414.94619751 -0.13034058 C422.98515302 -0.08424158 429.65940246 2.15366018 435.88891602 7.25463867 C440.70752091 13.60870575 440.83177506 20.5633953 440.7911377 28.1980896 C440.7972288 29.28001072 440.8033199 30.36193183 440.80959558 31.47663844 C440.82620325 35.09073445 440.82145281 38.70447728 440.81665039 42.31860352 C440.82399197 44.91436631 440.83257845 47.51012583 440.84231567 50.10588074 C440.86333003 56.41813629 440.86791284 62.73029991 440.86612779 69.04258631 C440.8648182 74.17533035 440.86863433 79.3080458 440.87605286 84.44078445 C440.87815214 85.92140885 440.88024974 87.40203325 440.88234568 88.88265765 C440.88391097 89.98820968 440.88391097 89.98820968 440.88550788 91.11609609 C440.90439397 105.04315592 440.903365 118.97016302 440.89653856 132.89723034 C440.8909637 145.62587273 440.91178891 158.35431381 440.94489902 171.08290915 C440.9786673 184.16651161 440.9938005 197.25001771 440.989182 210.33366454 C440.98694055 217.67359145 440.99213285 225.0133323 441.01707458 232.35322189 C441.04033289 239.25622309 441.03746692 246.15879895 441.01714706 253.06180763 C441.01373634 255.5925574 441.01882867 258.12333536 441.03313065 260.65404701 C441.05133445 264.11444636 441.03856338 267.57342596 441.01818848 271.03378296 C441.03070632 272.03029889 441.04322417 273.02681481 441.05612135 274.05352819 C440.96907583 280.97034582 439.42158739 286.53204436 435.39672852 292.24291992 C429.6079228 297.03267499 424.40297166 298.3934375 416.97468567 298.36317444 C416.21258166 298.36402886 415.45047764 298.36488329 414.66527957 298.3657636 C412.10414055 298.36741456 409.54306661 298.3619033 406.98193359 298.35644531 C405.14900209 298.35616333 403.31607048 298.35632139 401.48313904 298.35688782 C396.49999469 298.35717537 391.51687429 298.35128545 386.53373551 298.34431386 C381.32869986 298.3380733 376.12366369 298.33747596 370.91862488 298.33628845 C361.05891418 298.33317722 351.19921454 298.32496661 341.33950871 298.31493896 C330.11595406 298.3037714 318.89239888 298.29826575 307.66884005 298.29324353 C284.57812866 298.28278384 261.48743243 298.26444092 238.39672852 298.24291992 C238.39672852 310.45291992 238.39672852 322.66291992 238.39672852 335.24291992 C241.49072021 335.22197266 244.58471191 335.20102539 247.77246094 335.17944336 C257.99033979 335.11319038 268.20822808 335.06899124 278.42626476 335.03567123 C284.62201987 335.01478883 290.81755506 334.98645865 297.01318359 334.94116211 C302.99134294 334.89772858 308.96929065 334.87378774 314.9475956 334.86341095 C317.22939702 334.85601517 319.51118675 334.84157313 321.79289818 334.81999969 C324.98686205 334.79099963 328.17994928 334.7869626 331.37402344 334.78881836 C332.31917313 334.77443726 333.26432281 334.76005615 334.2381134 334.74523926 C338.38804072 334.771362 340.7689874 334.87097483 344.39814758 337.02130127 C351.21467947 344.59854477 348.39672852 349.18426313 348.39672852 361.24291992 C254.67672852 361.24291992 160.95672852 361.24291992 64.39672852 361.24291992 C64.39672852 343.24291992 64.39672852 343.24291992 68.39672852 337.24291992 C71.5044147 335.17112913 72.15091622 334.99384364 75.66777039 335.00241089 C76.53855225 334.99966156 77.40933411 334.99691223 78.3065033 334.99407959 C79.25884354 335.00127014 80.21118378 335.00846069 81.19238281 335.01586914 C82.69996658 335.01543106 82.69996658 335.01543106 84.23800659 335.01498413 C87.56574079 335.01637937 90.8932521 335.03194987 94.22094727 335.04760742 C96.52594378 335.05133686 98.83094188 335.05418416 101.13594055 335.05618286 C107.2072079 335.06382478 113.27837979 335.08347813 119.34960938 335.10559082 C125.54303699 335.12603719 131.73648001 335.13518199 137.92993164 335.14526367 C150.08557932 335.16672345 162.24113105 335.2019102 174.39672852 335.24291992 C174.39672852 323.03291992 174.39672852 310.82291992 174.39672852 298.24291992 C168.81460449 298.269104 163.23248047 298.29528809 157.48120117 298.32226562 C139.04107722 298.40510207 120.60094595 298.46059369 102.16068459 298.50198078 C90.97999195 298.52774253 79.79947582 298.56285442 68.61889648 298.62011719 C58.87184414 298.67001409 49.12491964 298.70222568 39.37774312 298.7133624 C34.21849129 298.71987046 29.05960516 298.7351242 23.90047073 298.77157021 C19.03966953 298.80562891 14.17938301 298.81595294 9.31847382 298.80845833 C7.53915735 298.80982847 5.75982281 298.81970196 3.98060989 298.8389473 C-14.36999063 299.02762503 -14.36999063 299.02762503 -21.60327148 293.24291992 C-25.46932784 288.495547 -27.72504849 283.94773134 -27.73469925 277.75751972 C-27.73854039 276.83338034 -27.74238154 275.90924096 -27.74633908 274.95709735 C-27.7454726 273.94019154 -27.74460612 272.92328572 -27.74371338 271.87556458 C-27.7466845 270.79650445 -27.74965562 269.71744433 -27.75271678 268.60568541 C-27.76142363 264.97149086 -27.76291371 261.33732917 -27.7644043 257.703125 C-27.76903109 255.10485768 -27.77405557 252.50659104 -27.77944946 249.9083252 C-27.79303607 242.83587892 -27.79905823 235.76343831 -27.80346012 228.69098115 C-27.80622242 224.27450773 -27.8104598 219.8580365 -27.81496429 215.44156456 C-27.82715821 203.21300932 -27.83745675 190.98445585 -27.84083939 178.75589466 C-27.84105895 177.97309554 -27.84127852 177.19029642 -27.84150474 176.38377611 C-27.84172302 175.59910287 -27.84194129 174.81442962 -27.84216619 174.00597841 C-27.84260965 172.41593222 -27.84305621 170.82588603 -27.84350586 169.23583984 C-27.84372729 168.44712192 -27.84394872 167.65840399 -27.84417686 166.84578552 C-27.84812352 154.07026485 -27.86557295 141.29480127 -27.88886538 128.51930264 C-27.91258786 115.40198282 -27.92504167 102.28469162 -27.9262073 89.16734999 C-27.92712365 81.8028631 -27.93286558 74.43845055 -27.95102692 67.07398415 C-27.9680523 60.14570787 -27.96967377 53.21757482 -27.96088791 46.28928375 C-27.96011633 43.74640971 -27.96447611 41.20352815 -27.97434616 38.66067314 C-27.98703211 35.18867792 -27.98120652 31.71718512 -27.97076416 28.24519348 C-27.97882056 27.23944127 -27.98687697 26.23368907 -27.99517751 25.19745952 C-27.94728294 18.38610914 -27.189235 12.53414622 -22.84155273 7.00073242 C-22.20604492 6.4619043 -21.57053711 5.92307617 -20.91577148 5.36791992 C-20.2931543 4.81362305 -19.67053711 4.25932617 -19.02905273 3.68823242 C-13.16224153 0.19270884 -6.64611228 -0.04945895 0 0 Z " fill="#57595B" transform="translate(49.603271484375,140.757080078125)"/>
<path d="M0 0 C0.8717475 -0.00507454 1.74349499 -0.01014909 2.64165908 -0.0153774 C4.08691027 -0.01612404 4.08691027 -0.01612404 5.56135845 -0.01688576 C6.58042756 -0.02126801 7.59949667 -0.02565027 8.64944667 -0.03016531 C12.08645028 -0.04358948 15.52342823 -0.04974025 18.96045208 -0.0558567 C21.41565855 -0.06375473 23.87086386 -0.07202349 26.32606792 -0.08063698 C33.709818 -0.10462209 41.09356385 -0.11978884 48.47733954 -0.13269705 C50.56217439 -0.13640818 52.64700857 -0.14038147 54.73184276 -0.14444971 C67.67341751 -0.16968408 80.61499329 -0.19174107 93.55658722 -0.20417786 C96.55481565 -0.20710764 99.55304405 -0.21006929 102.55127239 -0.21308327 C103.29648353 -0.21382932 104.04169467 -0.21457537 104.80948796 -0.21534403 C116.88552637 -0.22800174 128.96141767 -0.26122991 141.03738729 -0.3028851 C153.43032175 -0.3452839 165.82318085 -0.36887045 178.21618766 -0.37409842 C185.17656811 -0.37751476 192.13671863 -0.38929593 199.09702778 -0.42220116 C205.64283789 -0.45309582 212.18831936 -0.45863009 218.73421574 -0.4468174 C221.13968048 -0.44659581 223.5451633 -0.45497047 225.95056438 -0.47247124 C229.22911427 -0.49503057 232.50619164 -0.48692837 235.78474712 -0.47098732 C237.21996006 -0.49181045 237.21996006 -0.49181045 238.68416721 -0.51305425 C243.27611045 -0.4578617 245.21728219 -0.37135743 248.93095207 2.5500145 C252.03419166 6.70409679 252.00356723 9.63312312 251.98378277 14.66658592 C251.98463879 15.45043663 251.9854948 16.23428734 251.98637676 17.0418911 C251.98803907 19.69097185 251.98249681 22.33999014 251.97705364 24.98906517 C251.97674748 26.91167194 251.9768805 28.83427881 251.9774189 30.75688553 C251.97764527 35.91987478 251.97183652 41.08284101 251.96480846 46.24582481 C251.95912648 51.0851251 251.95884605 55.92441969 251.95813274 60.76372337 C251.95287899 74.92982345 251.93891793 89.09591921 251.92602825 103.26201439 C251.90540325 134.90076439 251.88477825 166.53951439 251.86352825 199.13701439 C165.73352825 199.13701439 79.60352825 199.13701439 -9.13647175 199.13701439 C-10.31268634 120.33063694 -10.31268634 120.33063694 -10.374753 98.46123314 C-10.37882853 97.1510956 -10.38290405 95.84095806 -10.38710308 94.49111938 C-10.40356746 89.01113737 -10.41810345 83.53115797 -10.42585182 78.05115604 C-10.43664813 70.42750779 -10.46215832 62.80418615 -10.50521594 55.18064946 C-10.53891712 48.99380148 -10.55084224 42.80708228 -10.55491924 36.62014771 C-10.55976424 34.03774745 -10.57131795 31.45535007 -10.58995724 28.87301254 C-10.61415876 25.32492677 -10.61342869 21.77768566 -10.60644245 18.22954369 C-10.61925251 17.18753304 -10.63206257 16.14552238 -10.64526081 15.07193565 C-10.60239839 9.12639841 -10.13059423 5.652581 -6.13647175 1.13701439 C-3.84072132 -0.01086082 -2.55285791 0.00787041 0 0 Z M13.86352825 52.13701439 C11.78650176 55.21739669 11.60783954 57.72589009 11.58937359 61.39906883 C11.57939846 62.46449409 11.56942333 63.52991936 11.55914593 64.62763023 C11.55848125 65.79136665 11.55781658 66.95510307 11.55713177 68.15410423 C11.54880825 69.38375404 11.54048473 70.61340385 11.53190899 71.88031578 C11.51193942 75.25027869 11.50116802 78.61999452 11.49608254 81.98999548 C11.49243671 84.09667693 11.48619549 86.20333469 11.47908115 88.3100071 C11.45459432 95.66316075 11.44153631 103.01624393 11.43799114 110.36943626 C11.43435585 117.21785225 11.40445949 124.06582008 11.36258656 130.9140991 C11.32787022 136.79874146 11.31244248 142.68323539 11.31174511 148.56797945 C11.31095277 152.08051152 11.30223504 155.59258687 11.27374744 159.10501289 C11.24267317 163.0238962 11.25163295 166.94213729 11.26416302 170.86113548 C11.24932873 172.02082344 11.23449444 173.1805114 11.21921062 174.37534142 C11.20824042 181.08675051 11.20824042 181.08675051 14.27598858 186.84175682 C18.42234036 190.51974692 21.48054892 190.28753127 26.80829144 190.29091454 C27.63881157 190.29529679 28.46933171 190.29967904 29.32501912 190.30419409 C32.12399054 190.31761004 34.92293046 190.32376721 37.72192669 190.32988548 C39.7223147 190.33778424 41.72270129 190.34605305 43.72308636 190.35466576 C50.30634476 190.38091173 56.88960961 190.39619579 63.47290325 190.41045189 C65.73686255 190.41581048 68.00082179 190.42118798 70.264781 190.42658424 C79.6804515 190.44821659 89.09612027 190.46695426 98.51180935 190.47820663 C112.01755772 190.49445156 125.52301864 190.52763868 139.02865863 190.58460748 C148.51831087 190.62327506 158.00788613 190.64283555 167.4976151 190.6481272 C173.16864396 190.65178496 178.83936641 190.66385152 184.51031017 190.69622993 C189.84554037 190.72625441 195.18027786 190.73264234 200.51557446 190.72084618 C202.47394425 190.72062497 204.43233653 190.72896859 206.39062786 190.74650002 C209.06462423 190.76913589 211.73682558 190.76092313 214.4108305 190.7450161 C215.18574266 190.75889819 215.96065483 190.77278027 216.75904918 190.78708303 C222.57929547 190.70177994 224.94149951 189.14074825 228.86352825 185.13701439 C230.12032138 182.62342814 230.00064395 180.89166939 230.0174284 178.07750511 C230.02602886 177.00641502 230.03462933 175.93532494 230.04349041 174.83177757 C230.04775036 173.65149986 230.05201031 172.47122215 230.05639935 171.25517845 C230.06457684 170.01606712 230.07275433 168.7769558 230.08117962 167.50029564 C230.1060683 163.38441353 230.12270893 159.26856822 230.13696575 155.15263939 C230.14232555 153.73562425 230.14770306 152.31860917 230.15309811 150.90159416 C230.17472859 145.00648569 230.19346462 139.11137996 230.2047205 133.21624184 C230.22095494 124.76921195 230.25411778 116.32264241 230.31112134 107.87578607 C230.34983809 101.93599831 230.36935528 95.99633357 230.37464106 90.05642295 C230.37829264 86.50918686 230.39029161 82.96244173 230.4227438 79.41534233 C230.45845159 75.45556745 230.45444907 71.4963688 230.44702435 67.53642845 C230.46342968 66.36424767 230.47983501 65.19206688 230.49673748 63.98436546 C230.52586139 57.22508731 230.52586139 57.22508731 227.45205975 51.42455101 C223.29968559 47.75501561 220.23959138 47.98859139 214.91203594 47.98984337 C214.08081024 47.98616668 213.24958454 47.98248999 212.39317018 47.97870189 C209.59186086 47.96763826 206.7905886 47.9638167 203.98926067 47.96001244 C201.98725039 47.95374986 199.98524128 47.94710324 197.98323345 47.94009972 C192.53278082 47.92267202 187.08233696 47.91213336 181.63186336 47.90389419 C178.22901967 47.8987483 174.82617873 47.89267241 171.42333698 47.88638306 C160.78359361 47.86732694 150.14385719 47.85309611 139.50410002 47.84477109 C127.20916863 47.83499296 114.914417 47.80866011 102.61954898 47.76827019 C93.12481537 47.73814582 83.6301334 47.72330575 74.13535291 47.71999007 C68.46049301 47.71763558 62.78582505 47.7086232 57.11101627 47.6835289 C51.77337504 47.66030723 46.43605295 47.65599116 41.09837437 47.66629028 C39.13797986 47.66678718 37.17756995 47.66042172 35.21722317 47.64673424 C32.54308699 47.62910584 29.8701074 47.63607651 27.19597149 47.6492672 C26.41814648 47.63829795 25.64032148 47.6273287 24.83892602 47.61602706 C19.88585424 47.67511191 17.28457676 48.52852149 13.86352825 52.13701439 Z " fill="#E3E4E6" transform="translate(135.13647174835205,9.862985610961914)"/>
<path d="M0 0 C10.06623323 -0.09276471 20.13236442 -0.16379786 30.19893837 -0.20724869 C34.87350205 -0.22810516 39.54777284 -0.25638724 44.22216797 -0.30175781 C48.73498785 -0.34528496 53.24752637 -0.3691517 57.76054001 -0.37950897 C59.48051761 -0.38688804 61.20048017 -0.40129779 62.92033768 -0.42292023 C65.33345821 -0.45204629 67.7454228 -0.45595228 70.15869141 -0.45410156 C71.22037033 -0.47567322 71.22037033 -0.47567322 72.30349731 -0.49768066 C77.3169474 -0.45619822 80.18558909 0.78389774 84 4 C86.52326482 8.15204387 86.28155778 12.22345418 86.26069641 16.95127869 C86.26452196 17.86588429 86.26834751 18.78048988 86.27228898 19.7228108 C86.28262619 22.79435058 86.27862544 25.86570367 86.2746582 28.93725586 C86.27900426 31.13660353 86.28418706 33.33594969 86.29014587 35.53529358 C86.30355822 41.51455759 86.30411207 47.49375849 86.30158257 53.47303462 C86.30051442 58.46082303 86.30539222 63.44859859 86.310188 68.43638426 C86.32192602 80.87406145 86.32105367 93.31171048 86.31463119 105.7493887 C86.30946164 116.55135829 86.32071806 127.3532377 86.33972941 138.15518945 C86.35910025 149.24641822 86.36707359 160.33761032 86.36360615 171.42885691 C86.36179057 177.65584463 86.36445691 183.88274975 86.37832069 190.10972404 C86.3908675 195.96444787 86.38898474 201.81899083 86.37590981 207.67371178 C86.37353764 209.82437958 86.3763015 211.97505999 86.38453293 214.12571335 C86.39494782 217.0579332 86.38694193 219.98954022 86.3742218 222.92173767 C86.38159609 223.7760174 86.38897037 224.63029714 86.39656812 225.51046413 C86.35401062 230.16255284 86.05209165 233.25233174 83 237 C79.49798876 240.37672897 76.73477516 240.37721443 71.9652729 240.38311005 C71.25333816 240.38806956 70.54140341 240.39302908 69.80789489 240.39813888 C67.40992808 240.4111457 65.01251348 240.40269448 62.61453247 240.39440918 C60.88293622 240.39929569 59.15134323 240.40548438 57.41975582 240.41286707 C52.65166717 240.42932026 47.88374328 240.42693775 43.11563611 240.4214921 C37.97714519 240.41882851 32.83869886 240.43334108 27.70022583 240.44558716 C17.62952351 240.46667188 7.55887871 240.47118027 -2.51184307 240.46939927 C-10.69534274 240.46809316 -18.87882442 240.47188808 -27.06232071 240.47932434 C-29.41693818 240.48142347 -31.77155566 240.48352107 -34.12617314 240.48561716 C-35.29802694 240.48666069 -36.46988075 240.48770422 -37.67724527 240.48877937 C-59.85488645 240.50769406 -82.03249458 240.50662779 -104.21014048 240.49981004 C-124.51077775 240.49423383 -144.81128884 240.51506118 -165.11189662 240.54817051 C-185.94271171 240.58188162 -206.77346631 240.59707905 -227.6043092 240.59245348 C-239.30478379 240.59020616 -251.00514177 240.5954903 -262.70559311 240.62034607 C-272.66657209 240.6413259 -282.62737052 240.6449842 -292.58835684 240.62604648 C-297.6726679 240.61686811 -302.75664201 240.61580978 -307.84092712 240.63640213 C-312.49325753 240.65503691 -317.14497327 240.65069327 -321.79727973 240.62785631 C-323.48231719 240.62365152 -325.16740109 240.62793333 -326.85238956 240.64145225 C-329.14020356 240.6585609 -331.42585887 240.64495894 -333.71359062 240.62361908 C-334.98500432 240.62389146 -336.25641802 240.62416385 -337.5663594 240.62444448 C-342.07395067 239.80469052 -343.99828652 238.44736818 -347 235 C-347.45456148 232.07565448 -347.58884475 230.05247139 -347.375 227.1875 C-347.33439453 226.14819336 -347.33439453 226.14819336 -347.29296875 225.08789062 C-347.22273481 223.3905703 -347.11512307 221.69486747 -347 220 C-346.14493089 219.99902319 -345.28986178 219.99804638 -344.40888149 219.99703997 C-293.763058 219.93880455 -243.11727753 219.86503559 -192.47150718 219.77101372 C-186.39433507 219.75974516 -180.31716273 219.74860677 -174.23999023 219.73754883 C-172.42515909 219.7342433 -172.42515909 219.7342433 -170.57366469 219.730871 C-150.96730774 219.69547069 -131.36095083 219.670622 -111.75457374 219.64965298 C-91.64595329 219.62791269 -71.53737442 219.59487917 -51.42878932 219.55129844 C-39.01449419 219.52475117 -26.6002509 219.50707846 -14.18592878 219.50065396 C-5.68016625 219.49540948 2.82553098 219.47922422 11.33125856 219.45433434 C16.24318117 219.44028708 21.1549868 219.43116054 26.06693077 219.43499184 C30.56073654 219.43839082 35.05429204 219.42810247 39.54804651 219.40676448 C41.17664909 219.4014766 42.80527753 219.40128252 44.43387999 219.40660437 C46.64279616 219.41308916 48.85087916 219.40125738 51.05972576 219.38476086 C52.28812103 219.38286225 53.5165163 219.38096365 54.78213567 219.37900752 C58.29769891 218.96493633 60.18871149 218.1142809 63 216 C64.61638417 212.76723165 64.15399613 209.22565384 64.15821838 205.67318726 C64.16562535 204.365929 64.16562535 204.365929 64.17318195 203.03226149 C64.18861156 200.09491461 64.19693231 197.15758967 64.20532227 194.22021484 C64.2148965 192.12142237 64.22490631 190.02263185 64.23532104 187.92384338 C64.26242545 182.2113465 64.28340498 176.4988413 64.30332303 170.78631544 C64.32514852 164.82185307 64.35255398 158.85741646 64.37937927 152.89297485 C64.42935275 141.59182037 64.47427427 130.29065162 64.51740164 118.98946917 C64.56673429 106.12628895 64.62166712 93.26313459 64.67708123 80.39997935 C64.79097272 53.93334247 64.89705673 27.46668189 65 1 C43.55 1 22.1 1 0 1 C0 0.67 0 0.34 0 0 Z " fill="#2366D2" transform="translate(387,160)"/>
<path d="M0 0 C0.87373855 -0.00706559 1.74747709 -0.01413118 2.64769256 -0.02141088 C3.60828051 -0.0189958 4.56886846 -0.01658071 5.55856514 -0.01409245 C6.57848868 -0.01932912 7.59841221 -0.0245658 8.64924252 -0.02996117 C12.08317736 -0.04502024 15.51696398 -0.04566762 18.95092964 -0.04633427 C21.406285 -0.05395174 23.86163797 -0.06237852 26.31698799 -0.07155704 C32.99876203 -0.09354874 39.68047608 -0.10232862 46.36227751 -0.10738349 C50.53349691 -0.11063909 54.70470707 -0.1171607 58.87592125 -0.12438488 C70.42250141 -0.14395152 81.96907297 -0.16035556 93.51567078 -0.16326141 C94.25471042 -0.16344898 94.99375006 -0.16363655 95.75518484 -0.16382981 C97.25342631 -0.16419606 98.75166779 -0.16455976 100.24990927 -0.16492092 C100.99364833 -0.16510373 101.7373874 -0.16528654 102.50366402 -0.16547489 C103.24830965 -0.16565544 103.99295529 -0.16583599 104.76016594 -0.16602201 C116.82968234 -0.16956466 128.89902043 -0.19659232 140.96847497 -0.23397278 C153.35692961 -0.27203456 165.74529573 -0.29141873 178.13381016 -0.29172093 C185.09081099 -0.29230595 192.04759907 -0.30082686 199.00454521 -0.32971859 C205.54627997 -0.35676088 212.08766624 -0.3581555 218.62946129 -0.34206295 C221.03330845 -0.34024119 223.43717939 -0.34700421 225.84097481 -0.36288166 C229.11729827 -0.38320651 232.39212575 -0.37286928 235.66842842 -0.35466862 C236.62455493 -0.36786858 237.58068144 -0.38106855 238.56578147 -0.39466852 C243.15557615 -0.33624276 245.09595165 -0.24711659 248.80748367 2.67348289 C257.4971383 14.30127326 251.74048042 17.38802032 251.74048042 40.26006222 C165.61048042 39.93006222 79.48048042 39.60006222 -9.25951958 39.26006222 C-9.25951958 8.26006222 -9.25951958 8.26006222 -7.25951958 2.26006222 C-4.16033278 0.19393769 -3.50697143 0.00905494 0 0 Z " fill="#595A5C" transform="translate(135.25951957702637,9.739937782287598)"/>
<path d="M0 0 C85.8 0 171.6 0 260 0 C260 33 260 33 256 38 C253.71097799 39.144511 252.43903137 39.12815276 249.89476299 39.13422108 C248.59759193 39.14090784 248.59759193 39.14090784 247.2742154 39.14772969 C245.84063706 39.14745315 245.84063706 39.14745315 244.37809753 39.14717102 C243.36719553 39.15084771 242.35629352 39.1545244 241.31475812 39.1583125 C237.90539035 39.16938272 234.49605301 39.17319881 231.08666992 39.17700195 C228.65116783 39.18326402 226.2156667 39.18991058 223.78016663 39.19691467 C216.45573838 39.21616619 209.13131822 39.22674604 201.8068721 39.23564246 C198.35918062 39.24002394 194.91149069 39.2453911 191.46380043 39.25063133 C180.00561816 39.26764403 168.54743685 39.2821389 157.08924389 39.28938007 C154.1150786 39.29129002 151.14091331 39.29321035 148.16674805 39.29516602 C147.05790318 39.29589163 147.05790318 39.29589163 145.92665742 39.2966319 C133.94764108 39.30493483 121.96872453 39.33027597 109.98975178 39.36274669 C97.69625739 39.39579881 85.40281375 39.41382714 73.10927469 39.41702431 C66.20482308 39.41919109 59.30051698 39.42796403 52.39610863 39.45348549 C45.90285791 39.47743147 39.40979823 39.48102977 32.91650963 39.47072411 C30.53040191 39.47022682 28.14428161 39.47660371 25.75821304 39.49028015 C22.5061084 39.5078808 19.25495741 39.50095074 16.00285339 39.48774719 C15.05382666 39.49871644 14.10479993 39.50968568 13.12701482 39.52098733 C8.88327951 39.47925587 6.61115784 39.38023961 2.93732166 37.0945158 C-6.37746872 27.023924 0 17.2649266 0 0 Z " fill="#58595B" transform="translate(126,209)"/>
<path d="M0 0 C21.12 0 42.24 0 64 0 C64 12.21 64 24.42 64 37 C67.0939917 36.97905273 70.1879834 36.95810547 73.37573242 36.93652344 C83.59361127 36.87027046 93.81149956 36.82607132 104.02953625 36.79275131 C110.22529135 36.77186891 116.42082654 36.74353873 122.61645508 36.69824219 C128.59461443 36.65480866 134.57256213 36.63086781 140.55086708 36.62049103 C142.83266851 36.61309525 145.11445824 36.5986532 147.39616966 36.57707977 C150.59013353 36.54807971 153.78322076 36.54404268 156.97729492 36.54589844 C158.39501945 36.52432678 158.39501945 36.52432678 159.84138489 36.50231934 C163.99131221 36.52844208 166.37225888 36.62805491 170.00141907 38.77838135 C176.81795095 46.35562485 174 50.94134321 174 63 C80.28 63 -13.44 63 -110 63 C-110 45 -110 45 -106 39 C-102.89231381 36.92820921 -102.2458123 36.75092372 -98.72895813 36.75949097 C-97.42278534 36.75536697 -97.42278534 36.75536697 -96.09022522 36.75115967 C-95.13788498 36.75835022 -94.18554474 36.76554077 -93.2043457 36.77294922 C-91.69676193 36.77251114 -91.69676193 36.77251114 -90.15872192 36.77206421 C-86.83098773 36.77345945 -83.50347641 36.78902995 -80.17578125 36.8046875 C-77.87078473 36.80841693 -75.56578663 36.81126423 -73.26078796 36.81326294 C-67.18952062 36.82090486 -61.11834873 36.8405582 -55.04711914 36.8626709 C-48.85369152 36.88311727 -42.6602485 36.89226207 -36.46679688 36.90234375 C-24.3111492 36.92380353 -12.15559746 36.95899028 0 37 C0 24.79 0 12.58 0 0 Z " fill="#57585A" transform="translate(224,439)"/>
<path d="M0 0 C4.84781399 1.72150179 6.98741349 3.76609463 10 8 C12.45021548 13.50606579 12.28833635 18.80258421 12.27415466 24.71466064 C12.27939134 25.79487291 12.28462802 26.87508518 12.29002339 27.98803115 C12.30502714 31.60826915 12.30572863 35.22836585 12.30639648 38.84863281 C12.3140177 41.44409931 12.32244514 44.03956355 12.33161926 46.63502502 C12.35443885 53.68676858 12.36238653 60.73848198 12.36744571 67.79025745 C12.37070614 72.19621286 12.37723069 76.60215957 12.3844471 81.00811005 C12.40400872 93.21533552 12.4204156 105.42255292 12.42332363 117.62979507 C12.4235112 118.41048571 12.42369877 119.19117635 12.42389202 119.99552427 C12.42425827 121.57805904 12.42462197 123.1605938 12.42498314 124.74312857 C12.42516595 125.52866274 12.42534876 126.31419692 12.42553711 127.12353516 C12.42580793 128.30328036 12.42580793 128.30328036 12.42608423 129.5068588 C12.42962526 142.2485545 12.45664512 154.99008113 12.494035 167.73171821 C12.53214617 180.82428917 12.55148131 193.9167763 12.55178314 207.00940394 C12.55236707 214.3560777 12.56081695 221.70254973 12.58978081 229.04917145 C12.61690335 235.9603387 12.61817565 242.87110073 12.60212517 249.78230095 C12.60030935 252.31627968 12.60701324 254.85028128 12.62294388 257.38421059 C12.64339608 260.84908047 12.63285556 264.31255218 12.61473083 267.77740479 C12.6279308 268.77528495 12.64113077 269.77316512 12.65473074 270.80128407 C12.57228152 277.72307139 11.02897741 283.28548996 7 289 C1.26047165 293.7487797 -3.73204788 295.12389546 -11.15038395 295.13701439 C-11.88698044 295.13966622 -12.62357694 295.14231804 -13.38249454 295.14505023 C-15.87024851 295.15275784 -18.35795325 295.15330296 -20.84571838 295.15390015 C-22.63959455 295.15791381 -24.43346981 295.16235188 -26.22734398 295.1671797 C-31.17234532 295.17916186 -36.1173369 295.18479746 -41.06234992 295.18936086 C-46.38974311 295.19531077 -51.71712459 295.20692217 -57.04450989 295.21765137 C-69.91846247 295.24218991 -82.79241893 295.25680492 -95.66638771 295.26971143 C-99.30160773 295.27342239 -102.93682736 295.27739571 -106.572047 295.2814641 C-129.13812585 295.3067003 -151.70420529 295.32875711 -174.27029514 295.34119225 C-179.49896306 295.34412203 -184.72763096 295.34708368 -189.95629883 295.35009766 C-191.25588726 295.35084371 -192.55547569 295.35158976 -193.89444559 295.35235842 C-214.94901718 295.36501317 -236.00350434 295.39823695 -257.05803645 295.43989949 C-278.66627741 295.48230773 -300.27447514 295.50588603 -321.8827576 295.51111281 C-334.0182203 295.51452824 -346.15355108 295.5262991 -358.28897285 295.55921555 C-368.62387483 295.58720194 -378.95861786 295.59822154 -389.29355479 295.58702008 C-394.56671039 295.58182983 -399.83953304 295.58474438 -405.11264038 295.60948563 C-409.94221849 295.63195667 -414.77122407 295.63125474 -419.60081207 295.61228175 C-421.34584951 295.60947875 -423.09092561 295.61509697 -424.83590085 295.63009469 C-443.56471019 295.78119298 -443.56471019 295.78119298 -450 290 C-451.49194655 287.72450394 -452.73260741 285.4157579 -454 283 C-452.60166876 283.0028479 -452.60166876 283.0028479 -451.17508841 283.00575334 C-395.94473876 283.11779565 -340.71439964 283.20341212 -285.48395917 283.25532665 C-278.85486582 283.26158031 -272.2257727 283.26805191 -265.59667969 283.2746582 C-264.27692644 283.27596976 -262.9571732 283.27728131 -261.59742743 283.2786326 C-240.21799225 283.30021039 -218.83862757 283.33982755 -197.45923203 283.38576398 C-175.52791692 283.43249387 -153.596637 283.46028807 -131.66527414 283.47044247 C-118.12848237 283.4773088 -104.59188027 283.49900859 -91.05514687 283.53958233 C-81.77706453 283.56597784 -72.49908048 283.5740082 -63.2209633 283.56750689 C-57.86503731 283.56429906 -52.50944314 283.56927443 -47.1535759 283.59602737 C-42.25059356 283.62033959 -37.34816655 283.62160059 -32.44515878 283.60449447 C-30.67112738 283.60237996 -28.89706148 283.60873973 -27.12309808 283.62441591 C-15.60451086 284.09017015 -15.60451086 284.09017015 -5.42125154 279.51350999 C0.38043497 273.33521554 0.57307582 268.04012348 0.48101807 259.87001038 C0.48443577 258.75738671 0.48785347 257.64476305 0.49137473 256.49842352 C0.49795684 252.77480895 0.47597082 249.05191717 0.45410156 245.32836914 C0.45297316 242.65740334 0.45343072 239.98648165 0.45587158 237.31552124 C0.45796617 231.5675364 0.44544585 225.81973357 0.42292023 220.07179451 C0.39037357 211.76133283 0.3799905 203.4509589 0.37496826 195.1404404 C0.36621978 181.65632122 0.33961635 168.17229898 0.30175781 154.68823242 C0.26502614 141.59188318 0.23672005 128.4955603 0.21972656 115.39916992 C0.21815022 114.18771482 0.21815022 114.18771482 0.21654204 112.95178587 C0.21132178 108.89999717 0.20626697 104.84820828 0.20129442 100.79641926 C0.1598463 67.19754255 0.08941007 33.59878317 0 0 Z " fill="#424143" transform="translate(478,144)"/>
<path d="M0 0 C25.74 0 51.48 0 78 0 C76.515 0.495 76.515 0.495 75 1 C75.00368717 2.14467334 75.00737434 3.28934668 75.01117325 4.46870708 C75.09991181 32.3016762 75.16567465 60.13462701 75.20724869 87.96770763 C75.21132816 90.64554545 75.21549344 93.32338312 75.21972656 96.0012207 C75.2207758 96.66681625 75.22182505 97.33241179 75.22290608 98.01817689 C75.240315 108.79777721 75.27185533 119.57729227 75.30861118 130.356842 C75.34600715 141.41629322 75.36793355 152.47569734 75.37635398 163.53520852 C75.38157549 169.7477771 75.39387494 175.96015225 75.42292023 182.17265892 C75.4500257 188.01749139 75.45845476 193.86205034 75.45243073 199.7069397 C75.45353313 201.85439349 75.46151576 204.00185622 75.4768219 206.14925575 C75.4966733 209.07743703 75.49195661 212.0045806 75.48101807 214.93278503 C75.49266943 215.7859023 75.5043208 216.63901956 75.51632524 217.51798886 C75.47596068 221.50545025 75.28866853 223.52934149 73.15743637 227.00420094 C69.42079801 230.46088658 66.03965684 230.12452206 61.14964771 230.12304783 C60.4455111 230.12420167 59.74137449 230.12535552 59.0159004 230.12654433 C56.63865409 230.12920705 54.26147448 230.12469164 51.88423157 230.12025452 C50.16985009 230.12069029 48.45546867 230.12156531 46.74108762 230.12284368 C42.01620408 230.12508747 37.29134306 230.12106893 32.5664624 230.11606562 C27.47648802 230.11175965 22.38651499 230.11320765 17.29653931 230.1139679 C8.47319041 230.11449304 -0.35015111 230.11134725 -9.17349815 230.10573006 C-21.93068288 230.09761374 -34.68786402 230.0949997 -47.44505105 230.09374207 C-68.14118515 230.09155175 -88.83731531 230.08489223 -109.53344727 230.07543945 C-129.64151998 230.0662648 -149.74959163 230.05918422 -169.85766602 230.05493164 C-171.71588851 230.05453756 -171.71588851 230.05453756 -173.61165085 230.05413551 C-179.82622851 230.0528305 -186.04080618 230.05156679 -192.25538385 230.05032361 C-243.83692529 230.03995164 -295.41846245 230.02233389 -347 230 C-347 226.7 -347 223.4 -347 220 C-346.14493089 219.99902319 -345.28986178 219.99804638 -344.40888149 219.99703997 C-293.763058 219.93880455 -243.11727753 219.86503559 -192.47150718 219.77101372 C-186.39433507 219.75974516 -180.31716273 219.74860677 -174.23999023 219.73754883 C-172.42515909 219.7342433 -172.42515909 219.7342433 -170.57366469 219.730871 C-150.96730774 219.69547069 -131.36095083 219.670622 -111.75457374 219.64965298 C-91.64595329 219.62791269 -71.53737442 219.59487917 -51.42878932 219.55129844 C-39.01449419 219.52475117 -26.6002509 219.50707846 -14.18592878 219.50065396 C-5.68016625 219.49540948 2.82553098 219.47922422 11.33125856 219.45433434 C16.24318117 219.44028708 21.1549868 219.43116054 26.06693077 219.43499184 C30.56073654 219.43839082 35.05429204 219.42810247 39.54804651 219.40676448 C41.17664909 219.4014766 42.80527753 219.40128252 44.43387999 219.40660437 C46.64279616 219.41308916 48.85087916 219.40125738 51.05972576 219.38476086 C52.28812103 219.38286225 53.5165163 219.38096365 54.78213567 219.37900752 C58.29769891 218.96493633 60.18871149 218.1142809 63 216 C64.61638417 212.76723165 64.15399613 209.22565384 64.15821838 205.67318726 C64.16562535 204.365929 64.16562535 204.365929 64.17318195 203.03226149 C64.18861156 200.09491461 64.19693231 197.15758967 64.20532227 194.22021484 C64.2148965 192.12142237 64.22490631 190.02263185 64.23532104 187.92384338 C64.26242545 182.2113465 64.28340498 176.4988413 64.30332303 170.78631544 C64.32514852 164.82185307 64.35255398 158.85741646 64.37937927 152.89297485 C64.42935275 141.59182037 64.47427427 130.29065162 64.51740164 118.98946917 C64.56673429 106.12628895 64.62166712 93.26313459 64.67708123 80.39997935 C64.79097272 53.93334247 64.89705673 27.46668189 65 1 C43.55 1 22.1 1 0 1 C0 0.67 0 0.34 0 0 Z " fill="#377DE1" transform="translate(387,160)"/>
<path d="M0 0 C0.67816741 -0.00155999 1.35633482 -0.00311998 2.05505276 -0.00472724 C4.33823731 -0.00873096 6.62135592 -0.00555003 8.90454102 -0.00241089 C10.53703857 -0.00376521 12.16953581 -0.00554531 13.80203247 -0.00772095 C18.24406301 -0.01229163 22.68607039 -0.01050721 27.12810135 -0.00734186 C31.7689953 -0.00481639 36.40988722 -0.00715632 41.05078125 -0.00872803 C48.84546262 -0.01054917 56.64013452 -0.00814485 64.43481445 -0.00338745 C73.45639142 0.00205506 82.47794579 0.00029237 91.49952221 -0.00521386 C99.23456358 -0.00974655 106.96959812 -0.01039477 114.70464039 -0.00777519 C119.32912886 -0.00621328 123.95360669 -0.00601631 128.57809448 -0.00931168 C132.92496681 -0.01219265 137.27180989 -0.01021051 141.61867905 -0.00441742 C143.21749701 -0.00309104 144.81631742 -0.00348188 146.41513443 -0.00568008 C148.59075476 -0.00839636 150.7662803 -0.00500457 152.94189453 0 C154.77144432 0.00056554 154.77144432 0.00056554 156.63795471 0.0011425 C159.47094727 0.12698364 159.47094727 0.12698364 161.47094727 1.12698364 C161.52883733 4.58524706 161.56450547 8.04338658 161.59594727 11.50198364 C161.61270508 12.48682739 161.62946289 13.47167114 161.64672852 14.48635864 C161.65317383 15.42737427 161.65961914 16.36838989 161.66625977 17.33792114 C161.6767334 18.20723267 161.68720703 19.07654419 161.69799805 19.97219849 C161.47094727 22.12698364 161.47094727 22.12698364 159.47094727 24.12698364 C156.63795471 24.37866592 156.63795471 24.37866592 152.94189453 24.38095093 C152.26372712 24.38407091 151.58555971 24.38719089 150.88684177 24.39040542 C148.60359185 24.39841307 146.32060565 24.39205116 144.03735352 24.38577271 C142.40485477 24.38848134 140.77235725 24.39204156 139.13986206 24.39639282 C134.6978088 24.40553424 130.25584812 24.40196538 125.81379318 24.39563465 C121.17289728 24.3905837 116.53200949 24.39526358 111.89111328 24.39840698 C104.09642101 24.40204928 96.3017666 24.39724064 88.50708008 24.38772583 C79.48547997 24.37684077 70.46397024 24.38036617 61.44237232 24.39137864 C53.70732504 24.40044403 45.97230502 24.40174047 38.23725414 24.3965013 C33.61275437 24.39337747 28.98829712 24.39298354 24.36380005 24.39957428 C20.01689532 24.40533626 15.67010753 24.401372 11.32321548 24.38978577 C9.724399 24.38713301 8.12557274 24.3879147 6.5267601 24.3923111 C4.35103888 24.3977439 2.1756968 24.39096045 0 24.38095093 C-1.21969986 24.38019688 -2.43939972 24.37944283 -3.69606018 24.37866592 C-6.52905273 24.12698364 -6.52905273 24.12698364 -8.52905273 22.12698364 C-8.75610352 19.97219849 -8.75610352 19.97219849 -8.72436523 17.33792114 C-8.71791992 16.39690552 -8.71147461 15.45588989 -8.70483398 14.48635864 C-8.68807617 13.50151489 -8.67131836 12.51667114 -8.65405273 11.50198364 C-8.6450293 10.50940552 -8.63600586 9.51682739 -8.62670898 8.49417114 C-8.6030939 6.0382023 -8.57016073 3.58271196 -8.52905273 1.12698364 C-5.65929468 -0.30789539 -3.20866274 0.00099184 0 0 Z " fill="#FEC81D" transform="translate(269.529052734375,287.8730163574219)"/>
<path d="M0 0 C2.92937654 1.81310142 5.43647949 3.87295899 7 7 C7.41314256 11.6478538 6.78987316 14.24440152 4 18 C3.34 18.33 2.68 18.66 2 19 C1.67 41.77 1.34 64.54 1 88 C13.41579318 87.96042001 13.41579318 87.96042001 25.83154297 87.90991211 C27.38509045 87.9069922 28.93863869 87.90444382 30.4921875 87.90234375 C31.30244385 87.89722778 32.1127002 87.89211182 32.94750977 87.88684082 C38.7718564 87.8859282 38.7718564 87.8859282 41 89 C41.05789006 92.45826342 41.09355821 95.91640293 41.125 99.375 C41.14175781 100.35984375 41.15851563 101.3446875 41.17578125 102.359375 C41.18222656 103.30039062 41.18867188 104.24140625 41.1953125 105.2109375 C41.20578613 106.08024902 41.21625977 106.94956055 41.22705078 107.84521484 C41 110 41 110 39 112 C36.15830486 112.2092473 33.40612738 112.30112329 30.5625 112.30859375 C28.84635067 112.33374671 27.13020491 112.35914483 25.4140625 112.38476562 C22.70150623 112.413565 19.98901195 112.43757584 17.27636719 112.45629883 C14.66308737 112.47787854 12.05053158 112.5173047 9.4375 112.55859375 C8.2155896 112.55876747 8.2155896 112.55876747 6.96899414 112.5589447 C4.44486376 112.56909482 4.44486376 112.56909482 1 113 C0.34 113.99 -0.32 114.98 -1 116 C-2.65 115.67 -4.3 115.34 -6 115 C-6.33 114.01 -6.66 113.02 -7 112 C-8.49670731 112.00666183 -8.49670731 112.00666183 -10.02365112 112.01345825 C-19.41191414 112.05394375 -28.80015952 112.0839552 -38.18848991 112.10362434 C-43.01550805 112.11407626 -47.84245591 112.12826104 -52.66943359 112.15087891 C-57.32485778 112.17255722 -61.98021422 112.18455801 -66.63568497 112.18975449 C-68.41475619 112.19345928 -70.19382356 112.20069348 -71.97286606 112.21146011 C-74.45839294 112.22590854 -76.94363733 112.22798075 -79.42919922 112.22705078 C-80.17006775 112.23424133 -80.91093628 112.24143188 -81.67425537 112.24884033 C-86.77189568 112.22810432 -86.77189568 112.22810432 -89 110 C-89.22705078 107.84521484 -89.22705078 107.84521484 -89.1953125 105.2109375 C-89.18886719 104.26992188 -89.18242188 103.32890625 -89.17578125 102.359375 C-89.15064453 100.88210938 -89.15064453 100.88210938 -89.125 99.375 C-89.11597656 98.38242187 -89.10695313 97.38984375 -89.09765625 96.3671875 C-89.07404116 93.91121866 -89.04110799 91.45572832 -89 89 C-85.94981022 87.47490511 -82.77450387 87.87024056 -79.42919922 87.88647461 C-78.25833267 87.88625557 -78.25833267 87.88625557 -77.06381226 87.8860321 C-74.47740931 87.88673014 -71.89107791 87.89451743 -69.3046875 87.90234375 C-67.51392659 87.90420832 -65.72316517 87.90563204 -63.93240356 87.90663147 C-59.21415809 87.91045359 -54.4959433 87.92028129 -49.77770996 87.93133545 C-44.11926406 87.94335242 -38.46080791 87.94795326 -32.80235291 87.95378876 C-24.20154725 87.96349319 -15.60080894 87.98265189 -7 88 C-7 65.23 -7 42.46 -7 19 C-8.32 18.34 -9.64 17.68 -11 17 C-13.54666957 13.56199608 -13.50951861 10.14893725 -13 6 C-9.01674736 1.17816785 -6.28391573 -0.7250672 0 0 Z " fill="#CE032C" transform="translate(170,260)"/>
<path d="M0 0 C3.80598346 -0.22788134 4.6613349 -0.27231903 7.77206421 2.22900391 C11.32170502 7.0049415 10.69648475 12.63244028 10.64697266 18.3359375 C10.65573425 19.57563293 10.66449585 20.81532837 10.67352295 22.09259033 C10.69172487 25.48149911 10.68750888 28.86887603 10.67162752 32.25769806 C10.65893414 35.81032817 10.67071814 39.36289456 10.67855835 42.91552734 C10.687645 48.88065286 10.6756932 54.84546846 10.65185547 60.81054688 C10.62464564 67.69882481 10.63346053 74.58636271 10.6609875 81.47462273 C10.68370598 87.39757033 10.68686541 93.32029566 10.67379415 99.24327278 C10.66601451 102.77694955 10.6649165 106.31027891 10.68147659 109.84393311 C10.69865397 113.78426694 10.67482078 117.72377748 10.64697266 121.6640625 C10.65709381 122.82995911 10.66721497 123.99585571 10.67764282 125.19708252 C10.56222049 134.01056683 10.56222049 134.01056683 7.58456421 137.70849609 C3.4399018 141.38320074 0.37973732 141.15051894 -4.94476318 141.15390015 C-5.77528332 141.1582824 -6.60580346 141.16266465 -7.46149087 141.1671797 C-10.26046229 141.18059565 -13.05940221 141.18675283 -15.85839844 141.19287109 C-17.85878645 141.20076985 -19.85917304 141.20903866 -21.85955811 141.21765137 C-28.44281651 141.24389734 -35.02608136 141.2591814 -41.609375 141.2734375 C-43.87333429 141.27879609 -46.13729354 141.28417359 -48.40125275 141.28956985 C-57.81692325 141.3112022 -67.23259202 141.32993987 -76.6482811 141.34119225 C-90.15402947 141.35743717 -103.65949039 141.39062429 -117.16513038 141.44759309 C-126.65478262 141.48626067 -136.14435788 141.50582117 -145.63408685 141.51111281 C-151.30511571 141.51477057 -156.97583816 141.52683713 -162.64678192 141.55921555 C-167.98201212 141.58924002 -173.3167496 141.59562795 -178.6520462 141.58383179 C-180.610416 141.58361058 -182.56880828 141.5919542 -184.52709961 141.60948563 C-187.20109598 141.6321215 -189.87329733 141.62390874 -192.54730225 141.60800171 C-193.32221441 141.6218838 -194.09712657 141.63576588 -194.89552093 141.65006864 C-198.75680467 141.59347663 -201.45887727 141.06233912 -204.52829361 138.77449989 C-207 136 -207 136 -207.375 133.1875 C-207.25125 132.465625 -207.1275 131.74375 -207 131 C-205.46852436 130.99641747 -205.46852436 130.99641747 -203.90610981 130.99276257 C-179.07731394 130.93399988 -154.24861536 130.85813711 -129.41992664 130.76428509 C-117.41301665 130.71929615 -105.40613653 130.67988862 -93.39916992 130.65356445 C-82.93539046 130.63060948 -72.47170528 130.59723947 -62.00800055 130.55129844 C-56.46619905 130.52733251 -50.9244911 130.50862581 -45.38263893 130.50238609 C-40.16812516 130.49635051 -34.95385088 130.4764059 -29.73942566 130.44572449 C-27.82421212 130.43691976 -25.90896732 130.4332267 -23.99373436 130.43499184 C-21.38090535 130.4366398 -18.76881059 130.41998629 -16.15608215 130.39872742 C-15.39634765 130.40357499 -14.63661315 130.40842257 -13.85385638 130.41341704 C-9.40798925 130.35362544 -6.47941329 129.83762167 -3 127 C-0.91189873 123.99208342 -0.74362768 121.4591883 -0.7215271 117.84942627 C-0.71036362 116.80898666 -0.69920013 115.76854706 -0.68769836 114.69657898 C-0.68445808 112.99293938 -0.68445808 112.99293938 -0.68115234 111.25488281 C-0.67110672 110.05460953 -0.6610611 108.85433624 -0.65071106 107.61769104 C-0.62512399 104.33083449 -0.6082658 101.04407203 -0.59528303 97.75714588 C-0.5796465 94.32044885 -0.55285796 90.8838392 -0.5272522 87.44720459 C-0.48047362 80.94145749 -0.44372509 74.43569393 -0.41057932 67.92986465 C-0.37235141 60.52236187 -0.32294301 53.11494687 -0.27259517 45.7075181 C-0.16928902 30.47174219 -0.08002438 15.23591705 0 0 Z " fill="#8A3BDD" transform="translate(355,59)"/>
<path d="M0 0 C1.65 0 3.3 0 5 0 C12.74474199 8.17500544 10 10.83805031 10 25 C-83.72 25 -177.44 25 -274 25 C-274 21.7 -274 18.4 -274 15 C-138.865 14.505 -138.865 14.505 -1 14 C-0.67 9.38 -0.34 4.76 0 0 Z " fill="#414042" transform="translate(388,477)"/>
<path d="M0 0 C3.3 0 6.6 0 10 0 C10.09915614 4.60809095 10.17160182 9.21555592 10.21972656 13.82446289 C10.23979558 15.39097923 10.26705751 16.95742109 10.30175781 18.52368164 C10.35048754 20.78029794 10.3730147 23.03592083 10.390625 25.29296875 C10.41127014 25.98899704 10.43191528 26.68502533 10.45318604 27.40214539 C10.45483032 30.99581935 10.08015358 32.87681281 8.10058594 35.91918945 C5.2493352 38.74359787 3.78264773 39.12494811 -0.10523701 39.13422108 C-1.40240807 39.14090784 -1.40240807 39.14090784 -2.7257846 39.14772969 C-4.15936294 39.14745315 -4.15936294 39.14745315 -5.62190247 39.14717102 C-6.63280447 39.15084771 -7.64370648 39.1545244 -8.68524188 39.1583125 C-12.09460965 39.16938272 -15.50394699 39.17319881 -18.91333008 39.17700195 C-21.34883217 39.18326402 -23.7843333 39.18991058 -26.21983337 39.19691467 C-33.54426162 39.21616619 -40.86868178 39.22674604 -48.1931279 39.23564246 C-51.64081938 39.24002394 -55.08850931 39.2453911 -58.53619957 39.25063133 C-69.99438184 39.26764403 -81.45256315 39.2821389 -92.91075611 39.28938007 C-95.8849214 39.29129002 -98.85908669 39.29321035 -101.83325195 39.29516602 C-102.94209682 39.29589163 -102.94209682 39.29589163 -104.07334258 39.2966319 C-116.05235892 39.30493483 -128.03127547 39.33027597 -140.01024822 39.36274669 C-152.30374261 39.39579881 -164.59718625 39.41382714 -176.89072531 39.41702431 C-183.79517692 39.41919109 -190.69948302 39.42796403 -197.60389137 39.45348549 C-204.09714209 39.47743147 -210.59020177 39.48102977 -217.08349037 39.47072411 C-219.46959809 39.47022682 -221.85571839 39.47660371 -224.24178696 39.49028015 C-227.4938916 39.5078808 -230.74504259 39.50095074 -233.99714661 39.48774719 C-234.94617334 39.49871644 -235.89520007 39.50968568 -236.87298518 39.52098733 C-240.94787343 39.48091626 -243.42871214 39.30880096 -247.06267834 37.3445158 C-249.37765579 34.54296698 -249.75548901 32.58616123 -250 29 C-248.78686158 29.00184359 -247.57372316 29.00368717 -246.32382298 29.00558662 C-217.51002012 29.04892596 -188.69621783 29.08189287 -159.88238991 29.10213066 C-156.33394673 29.104632 -152.78550362 29.10722065 -149.23706055 29.10986328 C-148.17743819 29.11065021 -148.17743819 29.11065021 -147.09640931 29.11145304 C-135.66642666 29.12014965 -124.23646417 29.13591552 -112.80649347 29.15430559 C-101.07353251 29.17302536 -89.3405821 29.18412112 -77.60760683 29.18817699 C-71.01938584 29.19078396 -64.43121056 29.19690999 -57.84300423 29.21146011 C-51.64035622 29.22504758 -45.43777271 29.22922025 -39.23511124 29.22621536 C-36.96034456 29.226765 -34.68557571 29.23073546 -32.41082191 29.23841095 C-29.30037823 29.24839031 -26.19017669 29.24595787 -23.07972717 29.24050903 C-22.183788 29.24633472 -21.28784883 29.2521604 -20.36475998 29.25816262 C-10.51033902 29.31942029 -10.51033902 29.31942029 -1.96948242 25.21386719 C-0.8017354 22.54725173 -0.56912534 20.48851229 -0.48828125 17.578125 C-0.45283203 16.55332031 -0.41738281 15.52851563 -0.38085938 14.47265625 C-0.34702148 12.87744141 -0.34702148 12.87744141 -0.3125 11.25 C-0.27833984 10.17105469 -0.24417969 9.09210938 -0.20898438 7.98046875 C-0.12660142 5.32067608 -0.06162163 2.66035463 0 0 Z " fill="#414042" transform="translate(376,209)"/>
<path d="M0 0 C4.0523362 1.45541652 7.51462432 3.64562301 11.1484375 5.93359375 C11.94499756 6.42794922 12.74155762 6.92230469 13.56225586 7.43164062 C19.15304183 10.92219014 24.67891611 14.50606896 30.12695312 18.21557617 C33.51749136 20.52079545 36.94340944 22.72865404 40.44921875 24.85546875 C41.23159912 25.33757812 42.01397949 25.8196875 42.82006836 26.31640625 C44.33864583 27.24885772 45.86654546 28.16634349 47.40454102 29.06640625 C50.77872979 31.15769827 52.47057093 32.28756953 54.0625 36.01171875 C53.7734375 38.99609375 53.7734375 38.99609375 51.8203125 41.55078125 C48.35051131 44.33551913 44.79096446 46.76244824 41.0234375 49.12109375 C39.50381426 50.08839716 37.98428574 51.0558494 36.46484375 52.0234375 C35.68898926 52.51440918 34.91313477 53.00538086 34.11376953 53.51123047 C31.10374129 55.42099385 28.10814621 57.35248126 25.11547852 59.28930664 C23.6865122 60.2140462 22.25602285 61.13643679 20.82397461 62.05639648 C17.59152154 64.13847544 14.38926423 66.24425753 11.25 68.46484375 C10.20585937 69.19703125 9.16171875 69.92921875 8.0859375 70.68359375 C7.19519531 71.32683594 6.30445313 71.97007812 5.38671875 72.6328125 C2.22444514 74.28248887 0.2936768 74.48247428 -3.2265625 73.99609375 C-4.879776 72.87988281 -4.879776 72.87988281 -6.2265625 70.99609375 C-6.61424255 68.07397461 -6.61424255 68.07397461 -6.63061523 64.4609375 C-6.63747849 63.8020755 -6.64434174 63.1432135 -6.65141296 62.46438599 C-6.66970967 60.28723584 -6.66584018 58.11080425 -6.66015625 55.93359375 C-6.66471637 54.42048914 -6.67002143 52.90738661 -6.67604065 51.39428711 C-6.68497709 48.22338444 -6.68254235 45.05273357 -6.67260742 41.88183594 C-6.66111055 37.81601294 -6.68133645 33.75105751 -6.71052456 29.68534851 C-6.72885923 26.56093822 -6.72859976 23.43673695 -6.72288704 20.31228638 C-6.72273352 18.81314882 -6.72880311 17.31399737 -6.74117851 15.81491089 C-6.75603834 13.71980124 -6.74545197 11.62630861 -6.72827148 9.53125 C-6.72810532 8.33894775 -6.72793915 7.14664551 -6.72776794 5.91821289 C-6.2265625 2.99609375 -6.2265625 2.99609375 -4.33436584 1.08740234 C-2.2265625 -0.00390625 -2.2265625 -0.00390625 0 0 Z " fill="#FEC81E" transform="translate(232.2265625,92.00390625)"/>
<path d="M0 0 C21.12 0 42.24 0 64 0 C64 12.21 64 24.42 64 37 C42.88 37 21.76 37 0 37 C0 24.79 0 12.58 0 0 Z " fill="#929497" transform="translate(224,439)"/>
<path d="M0 0 C3.63 0 7.26 0 11 0 C11 52.47 11 104.94 11 159 C-75.13 159 -161.26 159 -250 159 C-250 158.67 -250 158.34 -250 158 C-167.5 158 -85 158 0 158 C0 105.86 0 53.72 0 0 Z " fill="#CFD2D4" transform="translate(376,50)"/>
<path d="M0 0 C1.17086655 -0.00021904 1.17086655 -0.00021904 2.36538696 -0.0004425 C4.95178991 0.00025553 7.53812131 0.00804282 10.12451172 0.01586914 C11.91527263 0.01773371 13.70603405 0.01915743 15.49679565 0.02015686 C20.21504113 0.02397898 24.93325592 0.03380668 29.65148926 0.04486084 C34.46410711 0.05508151 39.2767299 0.05965589 44.08935547 0.06469727 C53.53598571 0.07542921 62.98258512 0.09302356 72.42919922 0.11352539 C72.42919922 8.03352539 72.42919922 15.95352539 72.42919922 24.11352539 C62.03303956 24.15865062 51.6369446 24.19536896 41.2407093 24.21714973 C36.41369116 24.22760165 31.58674331 24.24178644 26.75976562 24.2644043 C22.10434144 24.28608261 17.448985 24.2980834 12.79351425 24.30327988 C11.01444303 24.30698467 9.23537566 24.31421887 7.45633316 24.3249855 C4.97080628 24.33943393 2.48556189 24.34150615 0 24.34057617 C-0.74086853 24.34776672 -1.48173706 24.35495728 -2.24505615 24.36236572 C-7.34269646 24.34162971 -7.34269646 24.34162971 -9.57080078 22.11352539 C-9.79785156 19.95874023 -9.79785156 19.95874023 -9.76611328 17.32446289 C-9.75966797 16.38344727 -9.75322266 15.44243164 -9.74658203 14.47290039 C-9.72982422 13.48805664 -9.71306641 12.50321289 -9.69580078 11.48852539 C-9.68677734 10.49594727 -9.67775391 9.50336914 -9.66845703 8.48071289 C-9.64484195 6.02474405 -9.61190878 3.56925371 -9.57080078 1.11352539 C-6.520611 -0.4115695 -3.34530465 -0.01623405 0 0 Z " fill="#FEC81D" transform="translate(90.57080078125,347.886474609375)"/>
<path d="M0 0 C1.37152222 -0.00945648 1.37152222 -0.00945648 2.77075195 -0.019104 C3.76034912 -0.01505554 4.74994629 -0.01100708 5.76953125 -0.00683594 C6.78297607 -0.00874939 7.7964209 -0.01066284 8.84057617 -0.01263428 C10.98584237 -0.01399685 13.13111678 -0.01029541 15.27636719 -0.00195312 C18.56854697 0.00874524 21.86018103 -0.00184613 25.15234375 -0.01464844 C27.23307413 -0.01332686 29.31380416 -0.01076449 31.39453125 -0.00683594 C32.38412842 -0.0108844 33.37372559 -0.01493286 34.39331055 -0.019104 C35.30765869 -0.01279968 36.22200684 -0.00649536 37.1640625 0 C38.37412964 0.00238678 38.37412964 0.00238678 39.60864258 0.00482178 C41.58203125 0.25878906 41.58203125 0.25878906 43.58203125 2.25878906 C44.02829908 5.38425062 43.90613427 8.54258746 43.89453125 11.69628906 C43.91064453 12.56833984 43.92675781 13.44039063 43.94335938 14.33886719 C43.94400391 15.17740234 43.94464844 16.0159375 43.9453125 16.87988281 C43.94829346 17.64743896 43.95127441 18.41499512 43.9543457 19.20581055 C43.47551321 21.84614001 42.66236061 22.5969488 40.58203125 24.25878906 C38.57104492 24.63973999 38.57104492 24.63973999 36.25 24.64697266 C35.37899658 24.65642914 34.50799316 24.66588562 33.6105957 24.67562866 C32.67304443 24.66955597 31.73549316 24.66348328 30.76953125 24.65722656 C29.32163208 24.66153183 29.32163208 24.66153183 27.84448242 24.66592407 C25.80354221 24.66796567 23.76258248 24.66242913 21.72167969 24.64990234 C18.59395685 24.63385027 15.46752629 24.64974802 12.33984375 24.66894531 C10.35807006 24.6669629 8.37629717 24.66311926 6.39453125 24.65722656 C5.45697998 24.66329926 4.51942871 24.66937195 3.5534668 24.67562866 C2.68246338 24.66617218 1.81145996 24.6567157 0.9140625 24.64697266 C0.14811768 24.64458588 -0.61782715 24.6421991 -1.40698242 24.63973999 C-3.95086236 24.15784043 -4.84268484 23.27619261 -6.41796875 21.25878906 C-6.7902832 19.20581055 -6.7902832 19.20581055 -6.78125 16.87988281 C-6.78060547 16.04134766 -6.77996094 15.2028125 -6.77929688 14.33886719 C-6.76318359 13.46681641 -6.74707031 12.59476562 -6.73046875 11.69628906 C-6.73369141 10.82037109 -6.73691406 9.94445312 -6.74023438 9.04199219 C-6.66377761 0.01314387 -6.66377761 0.01314387 0 0 Z " fill="#FBC721" transform="translate(217.41796875,317.7412109375)"/>
<path d="M0 0 C3.96 0 7.92 0 12 0 C12 12.21 12 24.42 12 37 C-9.12 37 -30.24 37 -52 37 C-52 33.04 -52 29.08 -52 25 C-50.63270752 24.99589111 -49.26541504 24.99178223 -47.85668945 24.98754883 C-42.77785684 24.96575709 -37.69979889 24.91146614 -32.62133789 24.84741211 C-30.42447338 24.82423262 -28.22749775 24.80983653 -26.03051758 24.80444336 C-22.86990109 24.79515373 -19.71103224 24.75416123 -16.55078125 24.70703125 C-15.57039383 24.7109639 -14.59000641 24.71489655 -13.57991028 24.71894836 C-8.98666255 24.62093851 -6.68857218 24.49818953 -2.88476562 21.74609375 C-0.9712922 18.95817288 -0.36073286 17.67591006 -0.29296875 14.35546875 C-0.26396484 13.51435547 -0.23496094 12.67324219 -0.20507812 11.80664062 C-0.19927734 10.94232422 -0.19347656 10.07800781 -0.1875 9.1875 C-0.16236328 8.30384766 -0.13722656 7.42019531 -0.11132812 6.50976562 C-0.05269442 4.34031866 -0.02342614 2.17011273 0 0 Z " fill="#808285" transform="translate(276,439)"/>
<path d="M0 0 C1.65029266 1.65029266 1.13306777 3.57238958 1.14044189 5.84555054 C1.14900711 7.4187632 1.14900711 7.4187632 1.15774536 9.02375793 C1.15886322 10.18429184 1.15998108 11.34482574 1.16113281 12.54052734 C1.16609772 13.75505081 1.17106262 14.96957428 1.17617798 16.22090149 C1.18831185 19.56186232 1.19575138 22.90276036 1.20018864 26.24373579 C1.20311587 28.32943081 1.20722001 30.41512029 1.21169281 32.50081253 C1.22537405 39.02177512 1.23503749 45.54272509 1.2388947 52.06370103 C1.24337641 59.59984749 1.26092677 67.13581265 1.2898953 74.67190397 C1.31148991 80.49103494 1.3215978 86.31011483 1.32293582 92.12928545 C1.32398551 95.60755599 1.32992757 99.08565626 1.34775543 102.56388474 C1.36724978 106.4428776 1.362956 110.32164281 1.35644531 114.20068359 C1.3656601 115.35716904 1.37487488 116.51365448 1.3843689 117.70518494 C1.37879974 118.75963303 1.37323059 119.81408112 1.36749268 120.90048218 C1.36895924 121.81821096 1.3704258 122.73593975 1.3719368 123.6814785 C0.92890976 126.44315122 0.24630416 127.37349728 -2 129 C-4.13745922 128.74853421 -5.45925779 128.54074221 -7 127 C-7.09608663 125.35509451 -7.12187787 123.70604309 -7.12025452 122.05833435 C-7.12162918 120.98836212 -7.12300385 119.91838989 -7.12442017 118.81599426 C-7.12082489 117.63204575 -7.11722961 116.44809723 -7.11352539 115.22827148 C-7.11367142 113.989422 -7.11381744 112.75057251 -7.1139679 111.47418213 C-7.11338892 108.06730167 -7.10835959 104.66048116 -7.10139394 101.25361133 C-7.09515993 97.69683174 -7.09455656 94.14005142 -7.09336853 90.58326721 C-7.09025535 83.84363418 -7.08204215 77.10401729 -7.07201904 70.36439139 C-7.06085748 62.69341602 -7.05534735 55.02243989 -7.05032361 47.35145843 C-7.03985952 31.56762959 -7.02226035 15.78381687 -7 0 C-4.31633121 -1.3418344 -2.84719317 -0.73004953 0 0 Z " fill="#5C9BF6" transform="translate(55,224)"/>
<path d="M0 0 C5.37521578 -0.02292746 10.75026261 -0.04284922 16.12548828 -0.05493164 C17.95492121 -0.05996737 19.78435009 -0.06679627 21.61376953 -0.07543945 C24.23991898 -0.08753824 26.86601532 -0.09323583 29.4921875 -0.09765625 C30.31306854 -0.10281754 31.13394958 -0.10797882 31.97970581 -0.11329651 C37.77225659 -0.11387171 37.77225659 -0.11387171 40 1 C40.05789006 4.45826342 40.09355821 7.91640293 40.125 11.375 C40.14175781 12.35984375 40.15851563 13.3446875 40.17578125 14.359375 C40.18544922 15.77089844 40.18544922 15.77089844 40.1953125 17.2109375 C40.21102295 18.51490479 40.21102295 18.51490479 40.22705078 19.84521484 C40 22 40 22 38 24 C35.13111419 24.17532289 32.36007355 24.23137614 29.4921875 24.1953125 C28.23125778 24.19106766 28.23125778 24.19106766 26.94485474 24.18673706 C24.25475954 24.1755243 21.5649949 24.15041803 18.875 24.125 C17.05339022 24.1149716 15.23177523 24.10584551 13.41015625 24.09765625 C8.93987375 24.07728122 4.47030774 24.03813533 0 24 C0 16.08 0 8.16 0 0 Z " fill="#FEC81D" transform="translate(171,348)"/>
<path d="M0 0 C9.45507727 4.83907766 9.45507727 4.83907766 11.4375 9.0625 C10.828032 13.15464231 9.07361539 14.25932577 6 17 C3.48636058 18.82291159 0.8811988 20.47774829 -1.75 22.125 C-3.26962324 23.09230341 -4.78915176 24.05975565 -6.30859375 25.02734375 C-7.08444824 25.51831543 -7.86030273 26.00928711 -8.65966797 26.51513672 C-11.66969621 28.4249001 -14.66529129 30.35638751 -17.65795898 32.29321289 C-19.0869253 33.21795245 -20.51741465 34.14034304 -21.94946289 35.06030273 C-25.18191596 37.14238169 -28.38417327 39.24816378 -31.5234375 41.46875 C-32.56757813 42.2009375 -33.61171875 42.933125 -34.6875 43.6875 C-35.57824219 44.33074219 -36.46898437 44.97398437 -37.38671875 45.63671875 C-40.54899236 47.28639512 -42.4797607 47.48638053 -46 47 C-48.05814912 45.42702327 -48.88318608 44.44289342 -49.54785156 41.92285156 C-49.79038992 35.9564079 -49.79038992 35.9564079 -47.71679688 33.44726562 C-45.79820698 32.03482007 -43.84305101 30.88831792 -41.75 29.75 C-40.18916745 28.82449459 -38.62931209 27.89733967 -37.0703125 26.96875 C-36.2443457 26.49050781 -35.41837891 26.01226562 -34.56738281 25.51953125 C-30.15840875 22.91003576 -25.90244621 20.06803935 -21.625 17.25 C-12.49176577 11.27300796 -12.49176577 11.27300796 -8.32421875 8.76171875 C-7.33035156 8.15972656 -6.33648437 7.55773437 -5.3125 6.9375 C-4.48363281 6.45152344 -3.65476562 5.96554688 -2.80078125 5.46484375 C-0.68062743 3.7402067 -0.33858902 2.66854056 0 0 Z " fill="#FEA81C" transform="translate(275,119)"/>
<path d="M0 0 C10.94567589 -0.78557482 10.94567589 -0.78557482 15.1875 2.375 C18.07658421 6.55919092 18.13362782 9.4551794 18.09765625 14.4140625 C18.0962413 15.14370209 18.09482635 15.87334167 18.09336853 16.62509155 C18.08776531 18.95843585 18.07521235 21.29168464 18.0625 23.625 C18.05748541 25.20572778 18.05292243 26.78645707 18.04882812 28.3671875 C18.03779484 32.24482854 18.02052811 36.12239807 18 40 C14.37 40 10.74 40 7 40 C6.9906543 38.99098633 6.98130859 37.98197266 6.97167969 36.94238281 C6.9317523 33.19226224 6.86598719 29.44295971 6.79248047 25.69335938 C6.76428653 24.07172163 6.74306406 22.44994687 6.72900391 20.828125 C6.70755128 18.49407895 6.66089425 16.16167739 6.609375 13.828125 C6.60814636 13.10506165 6.60691772 12.38199829 6.60565186 11.63702393 C6.50590389 8.19515879 6.28305918 6.34981434 4.08691406 3.63574219 C3.39823242 3.09594727 2.70955078 2.55615234 2 2 C1.34 1.34 0.68 0.68 0 0 Z " fill="#474648" transform="translate(369,10)"/>
<path d="M0 0 C1.1127832 -0.01836914 1.1127832 -0.01836914 2.24804688 -0.03710938 C4.18763629 -0.04238478 6.1267371 0.06561098 8.0625 0.1875 C10.55460439 2.67960439 10.32265661 4.19110788 10.3359375 7.59765625 C10.32820313 8.28730469 10.32046875 8.97695312 10.3125 9.6875 C10.32023437 10.37714844 10.32796875 11.06679687 10.3359375 11.77734375 C10.31583293 16.93416707 10.31583293 16.93416707 8.0625 19.1875 C5.51714859 19.38599071 3.10533241 19.46601775 0.5625 19.4375 C-0.12714844 19.44523437 -0.81679688 19.45296875 -1.52734375 19.4609375 C-6.68416707 19.44083293 -6.68416707 19.44083293 -8.9375 17.1875 C-9.10920903 14.46052777 -9.1699568 11.84843532 -9.125 9.125 C-9.12435547 8.37927734 -9.12371094 7.63355469 -9.12304688 6.86523438 C-9.05962108 -0.893854 -7.02672875 0.00607323 0 0 Z " fill="#DEDFE0" transform="translate(354.9375,219.8125)"/>
<path d="M0 0 C1.46751239 0.00399142 2.93502584 0.01874717 4.40234375 0.04296875 C5.14806641 0.04361328 5.89378906 0.04425781 6.66210938 0.04492188 C12.19956216 0.09018716 12.19956216 0.09018716 13.33984375 1.23046875 C13.46642597 3.88869532 13.52504589 6.50934299 13.52734375 9.16796875 C13.53958984 9.90982422 13.55183594 10.65167969 13.56445312 11.41601562 C13.56972853 13.35560504 13.46173277 15.29470585 13.33984375 17.23046875 C10.84773936 19.72257314 9.33623587 19.49062536 5.9296875 19.50390625 C4.89521484 19.49230469 4.89521484 19.49230469 3.83984375 19.48046875 C3.15019531 19.48820312 2.46054687 19.4959375 1.75 19.50390625 C-3.40682332 19.48380168 -3.40682332 19.48380168 -5.66015625 17.23046875 C-5.85864696 14.68511734 -5.938674 12.27330116 -5.91015625 9.73046875 C-5.91789062 9.04082031 -5.925625 8.35117188 -5.93359375 7.640625 C-5.91275992 2.29674633 -5.78042607 0.3639756 0 0 Z " fill="#DEDFE0" transform="translate(301.66015625,219.76953125)"/>
<path d="M0 0 C1.1127832 -0.01836914 1.1127832 -0.01836914 2.24804688 -0.03710938 C4.18763629 -0.04238478 6.1267371 0.06561098 8.0625 0.1875 C10.55460439 2.67960439 10.32265661 4.19110788 10.3359375 7.59765625 C10.32820313 8.28730469 10.32046875 8.97695312 10.3125 9.6875 C10.32023437 10.37714844 10.32796875 11.06679687 10.3359375 11.77734375 C10.31583293 16.93416707 10.31583293 16.93416707 8.0625 19.1875 C5.51714859 19.38599071 3.10533241 19.46601775 0.5625 19.4375 C-0.12714844 19.44523437 -0.81679687 19.45296875 -1.52734375 19.4609375 C-6.68416707 19.44083293 -6.68416707 19.44083293 -8.9375 17.1875 C-9.10920903 14.46052777 -9.1699568 11.84843532 -9.125 9.125 C-9.12435547 8.37927734 -9.12371094 7.63355469 -9.12304688 6.86523438 C-9.05962108 -0.893854 -7.02672875 0.00607323 0 0 Z " fill="#DEDFE0" transform="translate(205.9375,219.8125)"/>
<path d="M0 0 C1.36465267 0.00399021 2.7293066 0.01874032 4.09375 0.04296875 C4.78339844 0.04361328 5.47304687 0.04425781 6.18359375 0.04492188 C11.31263951 0.0899135 11.31263951 0.0899135 13.59375 1.23046875 C13.64757106 3.85574064 13.68733313 6.47991588 13.71875 9.10546875 C13.73550781 9.85183594 13.75226563 10.59820312 13.76953125 11.3671875 C13.7871459 13.32241336 13.69695189 15.27788896 13.59375 17.23046875 C11.10164561 19.72257314 9.59014212 19.49062536 6.18359375 19.50390625 C5.14912109 19.49230469 5.14912109 19.49230469 4.09375 19.48046875 C3.40410156 19.48820312 2.71445313 19.4959375 2.00390625 19.50390625 C-3.15291707 19.48380168 -3.15291707 19.48380168 -5.40625 17.23046875 C-5.60474071 14.68511734 -5.68476775 12.27330116 -5.65625 9.73046875 C-5.66398438 9.04082031 -5.67171875 8.35117188 -5.6796875 7.640625 C-5.65967251 2.50677926 -5.6051 0.37924415 0 0 Z " fill="#DEDFE0" transform="translate(152.40625,219.76953125)"/>
<path d="M0 0 C1.12535156 0.00580078 1.12535156 0.00580078 2.2734375 0.01171875 C3.02367187 0.00785156 3.77390625 0.00398437 4.546875 0 C10.14682697 0.01010822 10.14682697 0.01010822 11.2734375 1.13671875 C11.37330725 3.98006923 11.41221631 6.79369038 11.3984375 9.63671875 C11.40423828 10.83361328 11.40423828 10.83361328 11.41015625 12.0546875 C11.40004517 18.01011108 11.40004517 18.01011108 10.2734375 19.13671875 C7.5961237 19.23653089 4.95039575 19.2755175 2.2734375 19.26171875 C1.14808594 19.26751953 1.14808594 19.26751953 0 19.2734375 C-5.59995197 19.26332928 -5.59995197 19.26332928 -6.7265625 18.13671875 C-6.82643225 15.29336827 -6.86534131 12.47974712 -6.8515625 9.63671875 C-6.85542969 8.83878906 -6.85929688 8.04085937 -6.86328125 7.21875 C-6.8510463 0.01236651 -6.8510463 0.01236651 0 0 Z " fill="#E1E2E3" transform="translate(253.7265625,219.86328125)"/>
<path d="M0 0 C0.79792969 0.00386719 1.59585938 0.00773437 2.41796875 0.01171875 C3.21589844 0.00785156 4.01382813 0.00398438 4.8359375 0 C10.79136108 0.01011108 10.79136108 0.01011108 11.91796875 1.13671875 C12.01778089 3.81403255 12.0567675 6.4597605 12.04296875 9.13671875 C12.04876953 10.26207031 12.04876953 10.26207031 12.0546875 11.41015625 C12.04457928 17.01010822 12.04457928 17.01010822 10.91796875 18.13671875 C8.07461827 18.2365885 5.26099712 18.27549756 2.41796875 18.26171875 C1.62003906 18.26558594 0.82210937 18.26945312 0 18.2734375 C-5.95542358 18.26332642 -5.95542358 18.26332642 -7.08203125 17.13671875 C-7.18184339 14.45940495 -7.22083 11.813677 -7.20703125 9.13671875 C-7.21089844 8.38648438 -7.21476563 7.63625 -7.21875 6.86328125 C-7.20635911 -0.00127065 -6.83079658 0.01159728 0 0 Z " fill="#E1E2E3" transform="translate(154.08203125,19.86328125)"/>
<path d="M0 0 C0.79792969 0.00386719 1.59585937 0.00773437 2.41796875 0.01171875 C3.21589844 0.00785156 4.01382812 0.00398438 4.8359375 0 C10.79136108 0.01011108 10.79136108 0.01011108 11.91796875 1.13671875 C11.99116496 3.83326729 12.01039412 6.50363333 11.98046875 9.19921875 C11.97595703 9.95783203 11.97144531 10.71644531 11.96679688 11.49804688 C11.95497555 13.37763746 11.93703953 15.25718774 11.91796875 17.13671875 C8.74403186 18.72368719 5.3362267 18.27986345 1.85546875 18.26171875 C1.10974609 18.26558594 0.36402344 18.26945312 -0.40429688 18.2734375 C-5.95539624 18.26335376 -5.95539624 18.26335376 -7.08203125 17.13671875 C-7.18184339 14.45940495 -7.22083 11.813677 -7.20703125 9.13671875 C-7.21089844 8.38648438 -7.21476562 7.63625 -7.21875 6.86328125 C-7.20635911 -0.00127065 -6.83079658 0.01159728 0 0 Z " fill="#E1E2E3" transform="translate(353.08203125,19.86328125)"/>
<path d="M0 0 C0.79792969 0.00386719 1.59585937 0.00773437 2.41796875 0.01171875 C3.21589844 0.00785156 4.01382812 0.00398438 4.8359375 0 C10.79136108 0.01011108 10.79136108 0.01011108 11.91796875 1.13671875 C12.01778089 3.81403255 12.0567675 6.4597605 12.04296875 9.13671875 C12.04876953 10.26207031 12.04876953 10.26207031 12.0546875 11.41015625 C12.04457928 17.01010822 12.04457928 17.01010822 10.91796875 18.13671875 C8.25974218 18.26330097 5.63909451 18.32192089 2.98046875 18.32421875 C2.23861328 18.33646484 1.49675781 18.34871094 0.73242188 18.36132812 C-1.20716754 18.36660353 -3.14626835 18.25860777 -5.08203125 18.13671875 C-7.08203125 16.13671875 -7.08203125 16.13671875 -7.3125 12.6953125 C-7.30851036 11.32154571 -7.29376302 9.94777761 -7.26953125 8.57421875 C-7.26888672 7.87619141 -7.26824219 7.17816406 -7.26757812 6.45898438 C-7.209702 -0.17104719 -6.5445992 0.01111137 0 0 Z " fill="#E1E2E3" transform="translate(303.08203125,19.86328125)"/>
<path d="M0 0 C0.79792969 0.00386719 1.59585938 0.00773437 2.41796875 0.01171875 C3.21589844 0.00785156 4.01382813 0.00398438 4.8359375 0 C10.79136108 0.01011108 10.79136108 0.01011108 11.91796875 1.13671875 C12.04450073 3.62910444 12.103167 6.08142316 12.10546875 8.57421875 C12.11771484 9.26837891 12.12996094 9.96253906 12.14257812 10.67773438 C12.14786717 12.49892776 12.03966082 14.31958795 11.91796875 16.13671875 C9.91796875 18.13671875 9.91796875 18.13671875 6.2578125 18.3671875 C4.79030011 18.36319608 3.32278666 18.34844033 1.85546875 18.32421875 C1.10974609 18.32357422 0.36402344 18.32292969 -0.40429688 18.32226562 C-5.94174966 18.27700034 -5.94174966 18.27700034 -7.08203125 17.13671875 C-7.18184339 14.45940495 -7.22083 11.813677 -7.20703125 9.13671875 C-7.21089844 8.38648438 -7.21476563 7.63625 -7.21875 6.86328125 C-7.20635911 -0.00127065 -6.83079658 0.01159728 0 0 Z " fill="#E1E2E3" transform="translate(204.08203125,19.86328125)"/>
<path d="M0 0 C1.12535156 0.00580078 1.12535156 0.00580078 2.2734375 0.01171875 C3.02367187 0.00785156 3.77390625 0.00398438 4.546875 0 C10.14682697 0.01010822 10.14682697 0.01010822 11.2734375 1.13671875 C11.37324964 3.81403255 11.41223625 6.4597605 11.3984375 9.13671875 C11.40423828 10.26207031 11.40423828 10.26207031 11.41015625 11.41015625 C11.40004803 17.01010822 11.40004803 17.01010822 10.2734375 18.13671875 C7.5961237 18.23653089 4.95039575 18.2755175 2.2734375 18.26171875 C1.14808594 18.26751953 1.14808594 18.26751953 0 18.2734375 C-5.59995197 18.26332928 -5.59995197 18.26332928 -6.7265625 17.13671875 C-6.82637464 14.45940495 -6.86536125 11.813677 -6.8515625 9.13671875 C-6.85542969 8.38648438 -6.85929688 7.63625 -6.86328125 6.86328125 C-6.8512779 0.21342273 -6.64985852 0.01200335 0 0 Z " fill="#E5E6E7" transform="translate(253.7265625,19.86328125)"/>
<path d="M0 0 C3.62771552 0.88320639 4.97802955 2.36925437 6.94140625 5.47265625 C7.3702987 8.72992055 7.08537023 11.39142663 5.94140625 14.47265625 C3.10769132 17.11316335 1.16400127 18.23410112 -2.62109375 18.97265625 C-6.17444956 18.24376275 -7.65376879 17.21148468 -10.05859375 14.47265625 C-11.10245255 11.39843473 -11.43192365 8.70052404 -11.05859375 5.47265625 C-8.16483002 0.89864261 -5.23176088 -0.38717016 0 0 Z " fill="#919395" transform="translate(258.05859375,408.52734375)"/>
<path d="M0 0 C2.5625 0.1875 2.5625 0.1875 4.5625 2.1875 C4.1875 5.3125 4.1875 5.3125 3.5625 8.1875 C1.1875 8.8125 1.1875 8.8125 -1.4375 9.1875 C-3.4375 7.1875 -3.4375 7.1875 -3.625 4.125 C-3.37828947 0.25986842 -3.37828947 0.25986842 0 0 Z " fill="#5C9BF6" transform="translate(51.4375,205.8125)"/>
</svg>
